<?xml version="1.0" encoding="UTF-8"?>
<svg width="80px" height="89px" viewBox="0 0 80 89" version="1.1" xmlns="http://www.w3.org/2000/svg" xmlns:xlink="http://www.w3.org/1999/xlink">
    <!-- Generator: Sketch 43.1 (39012) - http://www.bohemiancoding.com/sketch -->
    <title>Artboard</title>
    <desc>Created with Sketch.</desc>
    <defs></defs>
    <g id="Page-1" stroke="none" stroke-width="1" fill="none" fill-rule="evenodd">
        <g id="Artboard">
            <path d="M77.8570658,-10.7525241 C78.0112883,-10.4058994 77.7263793,-10.6858005 77.5320833,-10.6220658 C77.5431112,-10.4170648 77.4016714,-10.0146898 77.2320875,-9.9774564 L76.9551,-9.90651922 C76.8756513,-9.79866329 76.7902349,-9.73315304 76.6959752,-9.721968 C75.7667933,-9.64955511 75.705885,-8.75320256 75.1021471,-8.15475198 C75.231787,-7.67814817 75.3878469,-7.94008754 75.5669954,-7.77672357 C75.4275527,-7.72194138 75.2786029,-7.72791591 75.1435903,-7.64649983 C74.7958983,-7.10441586 74.6564752,-6.74806998 74.0992897,-6.50168477 C74.1885575,-6.42480467 74.4700772,-6.34797741 74.4700772,-6.34797741 C74.1807689,-6.11459388 74.029427,-6.09894694 73.8955448,-5.97644093 C73.8589784,-5.75283486 74.3589761,-5.82880544 74.2942746,-5.65218203 C74.0445465,-5.46373838 74.0149422,-5.27571239 73.8434137,-5.22881264 C73.4156391,-5.52741555 73.4623946,-5.04751547 73.1625508,-4.79484805 C73.5849258,-4.63775201 73.3855604,-3.95522693 72.8998115,-3.92283656 C72.5607757,-3.56974588 72.5011345,-3.23046716 72.2745724,-3.14744541 C72.190901,-3.23852063 72.0563184,-3.4229524 72.0563184,-3.4229524 C71.9453926,-3.28124201 71.8008749,-3.34038674 71.7019691,-3.11927209 C71.6753532,-2.81473131 72.1048275,-3.03642897 72.0340758,-2.84919317 C72.0342796,-2.73440716 71.9927803,-2.61764954 71.8602024,-2.49676095 C71.547963,-2.34790547 71.8359551,-2.22832207 71.638334,-2.08480768 C71.1133633,-1.98201232 71.1214991,-1.53298328 70.8688491,-1.13052987 C70.2026415,-1.02047376 70.216739,-0.289686749 69.9252469,0.175446206 C69.8176739,0.347199272 69.5650106,0.46362684 69.4261301,0.658660135 C69.0662441,1.16404719 68.9039842,1.87621195 68.2900263,2.20336741 C68.2933582,2.3940757 68.2357971,2.58775362 68.1531484,2.78352515 C68.0566707,2.90109939 67.9104117,2.71145686 67.8276612,2.91357293 C66.9729957,4.12583624 66.409189,5.27897858 65.2679714,6.36158169 C65.1665654,6.5951245 65.2212199,6.82167808 65.0345988,7.06037109 C64.4392625,7.35821466 64.0572944,8.10862776 63.5249958,8.79570462 C63.5320708,8.99213488 63.8891244,8.91828748 63.7611125,9.18482566 C63.5467871,9.49311337 63.1435927,9.98898995 62.914005,10.3721701 C62.7642731,10.6221161 62.4366315,10.8864566 62.3372826,11.0873932 C62.2559084,11.251529 62.3521639,11.3549805 62.2292668,11.4939184 C62.014689,11.7382634 61.607293,12.0020182 61.2721819,11.9989072 C60.9213151,12.436108 61.2816605,12.667021 61.0750395,12.9253351 C60.9384574,12.9133502 60.7823394,12.7804987 60.6655711,12.8879993 C60.7434597,13.1323764 61.1496138,13.3603717 60.8424325,13.6242115 C60.6094863,13.2446317 60.3585869,13.1236122 60.2849647,12.677031 C60.0100313,13.3848705 59.6284759,13.7430181 59.5294672,14.4327066 C59.6432036,14.6098265 59.9836267,14.4571105 59.9100736,14.6436749 C59.5345405,14.7539127 59.8146778,14.9806574 59.6580729,15.2287633 C59.4009307,15.3694002 59.2580366,14.8584509 59.1150972,15.0833911 C58.7868257,15.3391851 59.4863049,15.3702711 59.1592169,15.7116538 C58.9893825,15.6051403 58.9116532,15.4942594 58.8746005,15.3816433 C58.7647584,15.5354828 58.653067,15.6771062 58.5194857,15.6852367 C58.481683,15.9062305 58.889635,15.8946639 58.8041021,16.0152471 C58.6326397,16.2651963 58.3728289,15.9666063 58.2016273,16.216232 C58.0214575,16.5308717 57.6898001,17.1411632 57.2031499,17.181926 C57.2233478,17.5165031 56.9081016,17.7571804 56.7106525,18.0652666 C56.3679504,18.5990895 56.22843,19.0571219 56.014915,19.4742615 C55.8002181,19.5985334 55.5855717,19.4646828 55.489802,19.4425033 C55.6279179,19.7572833 55.1942521,19.4753139 55.0981962,19.5187816 C55.520485,20.015919 55.5405219,20.4242792 55.137936,20.8344176 C55.1035031,21.0843966 55.463083,21.3152226 55.4294156,21.5652886 C55.0914616,22.0103125 54.5807871,22.4809137 54.5225482,23.0993137 C54.0924902,23.0864758 54.0244006,23.5699256 53.6612094,23.4845264 C53.8073094,23.6681479 53.6832185,23.8655676 53.7533242,24.0532681 C53.5850954,24.0857118 53.4261637,24.1760634 53.2282112,24.0215099 C53.1033985,23.8177072 53.1947906,23.6028014 53.0699779,23.3989987 C52.4216775,23.6039588 52.4793104,24.3460476 51.8792597,24.6031004 C52.0071054,25.0321827 52.2474504,25.2533476 52.5324736,25.4305048 C52.281365,25.6890618 52.3754406,25.8646545 52.0811079,25.8534637 C51.8083691,25.3408289 51.1613513,25.322412 50.869539,25.8553069 C51.133525,25.941442 51.4377512,26.276152 51.6785028,26.2169886 C51.6720319,26.9390829 50.765666,27.9159472 50.0062866,28.0171842 C49.9938503,28.7446038 49.1580394,28.7178047 48.7310825,29.0534919 C48.6965136,29.1844552 48.8770795,29.7056872 48.4905859,29.3517441 C48.251478,29.5156168 48.7484456,29.6444626 48.5638285,29.8060508 C48.3447531,30.2829417 47.9613186,30.4713799 47.92759,30.8686885 C47.740676,30.9025407 47.5795263,31.0992815 47.3728494,31.0104759 C47.2986628,31.4755772 47.1631541,31.6197917 46.9176085,32.1212186 C46.987926,32.2319637 47.3171609,32.3304549 47.2014593,32.451142 C46.963367,32.5038984 47.0650193,32.4462355 46.8216185,32.2402607 C46.177366,33.2765636 45.1430654,33.8617658 44.3799174,34.9947341 C44.2429997,34.7168144 44.0611117,34.7879616 43.8188182,34.7360713 C44.2673249,34.1726004 43.5426889,33.3829873 44.4596975,32.9857368 C44.425253,32.7424109 44.2459248,32.8611665 44.0609676,32.6614779 C43.5064746,32.516916 43.5318938,32.9403654 43.6282302,33.1981379 C43.3581239,33.0791739 43.1534603,33.3588974 42.8557573,33.0637713 C42.8171352,32.8577542 43.0248596,32.9131328 43.1628771,32.819699 C43.0141751,32.6548502 42.9243133,32.4875049 42.9083931,32.3165535 C43.008853,31.9826181 43.5547267,31.64455 43.8951056,31.6380192 C43.8293462,30.8925353 44.6759763,30.6592573 45.0493329,30.2066025 C45.0733134,30.1778994 45.0519384,29.7732715 45.1384596,29.6866997 C45.1792422,29.646487 45.3594892,29.7732516 45.4154471,29.6157626 C45.5680374,29.2513784 45.7998097,29.018874 46.0225627,28.7270808 C45.7862472,28.5734659 45.6322106,28.932389 45.3649688,28.5870497 C45.5771116,28.0482821 46.3448085,28.0341503 46.7552959,27.5458114 C47.5198629,27.6630365 46.9846695,28.2915203 46.6135334,28.812932 C46.2968051,29.2575423 45.9025283,29.8190522 45.5555569,30.1249831 C45.3929587,30.2685919 45.1779117,30.3031324 45.0863285,30.434328 C44.9539352,30.623389 44.7525197,31.6090083 44.6009553,31.7182058 C45.1234645,31.9760158 45.3745015,30.9091671 45.8355324,31.1426903 C45.9711859,31.3081755 45.7913785,31.4886721 46.0902773,31.6455124 C46.5173209,31.224734 46.9975177,29.9607489 46.9642682,29.196712 C47.1288386,29.0257841 47.3767482,29.365043 47.518748,29.0552481 C47.4148538,28.9498695 47.2525558,28.5966776 47.5713838,28.3080303 C47.7197989,28.156101 47.9280072,28.3725556 48.0957313,28.3397015 C47.7627757,27.7400684 48.9578225,26.6964203 49.423832,26.5558525 C50.2161255,24.8809834 52.2654359,23.1282172 53.7999839,21.1287615 C53.7749044,20.9391138 53.6413482,20.7544455 53.3645023,20.577511 C53.3890638,20.4807224 53.3000691,20.1796444 53.3000691,20.1796444 C52.871099,20.1468023 52.5869465,20.6484339 52.2376801,20.7468247 C51.9732521,20.1782823 52.7455881,19.6837329 53.1624102,19.3264137 C53.0920927,19.2156685 52.762353,19.1167668 52.8782986,18.9968137 C53.4896388,19.3268637 53.7907078,17.738849 54.438119,18.2905165 C54.3882394,18.6746906 53.5883112,19.0884198 53.8383715,19.5804693 C54.5835029,19.9052377 55.0695739,18.6256765 55.8084259,18.9115949 C55.5618399,18.7448072 55.7237613,18.4362162 55.2215913,18.1376365 C55.3468397,17.7087039 55.7017915,17.5586977 56.0459345,17.5246983 C56.1579871,17.7111611 56.0838299,18.0788056 56.3670418,18.0820238 C56.7595672,17.6615615 57.0272273,17.2477479 57.1480308,16.8409099 C56.8360218,16.5769984 56.6865291,16.6048614 56.5198037,16.5276566 C57.6872814,15.2901937 58.8677938,13.5111184 60.1335948,12.4553805 C60.1131544,11.7853152 60.6755354,11.4381758 61.1844472,10.7427922 C61.0027409,10.4520158 60.9245056,10.8029537 60.755585,10.5916685 C60.8209672,10.4204191 60.987242,9.95200773 61.2552065,10.108865 C61.3619439,9.89358366 61.3280194,9.85688991 61.3808241,9.81627731 C61.5676192,9.66235201 61.8202598,9.91386923 62.0019271,9.72899338 C61.9509386,9.19423249 62.6365712,8.89322841 62.9452854,8.42228336 L62.5942897,8.0388269 C62.9005933,7.92531498 62.9879229,8.02739928 63.0620936,8.07325563 C63.2035036,7.64086232 62.8152182,7.41454386 62.8575506,7.16616845 C62.9750846,7.05875482 63.1312025,7.19160625 63.2677846,7.20359121 C63.3300005,6.99066757 63.5447222,6.54612192 63.8332637,6.77488073 C63.9217611,6.50138177 64.2962567,6.15302565 64.573121,5.99414849 C64.6604209,6.06621451 64.7911142,6.26997896 64.7911142,6.26997896 C65.1363042,5.94760231 65.1537504,5.64096047 65.44572,5.32136573 C65.3603137,5.11533057 65.084034,4.91903899 65.2874868,4.69885459 C65.4782412,4.56903789 65.7292426,4.81118785 65.9453415,4.83856226 C65.9787436,4.49347777 66.0837905,4.14452639 66.4672057,3.78199955 C66.2226553,3.4883212 66.1926645,3.41358464 66.1647266,3.33837506 C65.8423592,3.60861137 65.5939829,4.33429874 65.2140003,4.24381398 C65.2011994,3.958101 65.4539789,3.65912544 65.5916186,3.36613792 C64.6745722,3.92511145 63.7164427,4.89362344 63.3059283,5.65456513 C63.2313465,5.7936951 63.2647835,5.95639605 63.1986781,6.06117731 C63.1480471,6.1415859 62.9746479,6.08198508 62.939814,6.24540505 C63.270795,6.69721107 62.752557,6.58748894 62.5550716,6.72254395 C62.1277669,7.01617072 61.6742176,7.79835415 61.4784669,7.92089404 C61.442566,7.94365245 61.1998245,7.64876714 61.1828511,7.87813019 C60.9634913,8.21338906 61.5613164,8.50941699 61.396969,8.8417444 C61.0618242,8.96822323 61.0317177,9.33098482 60.8861042,9.61106052 L60.6206208,9.39516156 C60.3854957,9.59762324 60.6027188,9.77802479 60.3683592,9.98057343 C60.1498324,10.0567394 59.9403418,10.1911369 59.6811378,10.0140878 C59.4682253,9.48529693 60.1547797,8.88777976 60.5877443,8.48038623 C60.3844501,8.45164154 60.2737612,8.32359787 60.2737612,8.32359787 C59.9709771,8.02648205 59.6230545,8.85385793 59.4532933,8.24875235 C59.1006187,8.22493083 58.8848483,8.06552818 58.9700776,7.75669943 C59.0154363,7.59059084 59.5479446,6.7788877 59.9907976,6.21724628 C60.5878424,5.46231097 61.1456148,4.90842799 61.4705122,4.6557818 C61.4418741,4.40110951 61.6495489,3.99743106 61.9698729,4.17330181 C61.9472093,4.2314632 62.1393663,4.50824288 62.1393663,4.50824288 C62.5270466,4.40574118 62.9094683,4.63104039 63.2189591,4.39853718 C63.3791163,4.199918 63.1665035,4.01898085 63.3553152,3.8190264 C64.2800256,3.19665633 64.3284002,2.02980517 65.3456507,1.48751186 C65.0344576,0.96556493 65.7430313,0.477543489 66.1631305,0.473713003 C66.2822435,-0.0667951368 66.8004844,-0.626581483 66.8223772,-1.162597 C66.9848994,-1.11023481 67.1529694,-1.02122451 67.2987297,-1.07140472 C67.7108588,-1.37523028 67.6024785,-1.98183761 68.2200892,-1.80362157 C67.9349261,-1.9401863 68.4162785,-2.12880048 68.5264435,-2.04778082 C68.6137819,-1.75501263 68.3845627,-1.61791281 68.1419619,-1.5709654 C67.7282485,-0.212207836 67.0120743,0.239638511 66.6169795,1.138988 C67.7640909,0.214897482 68.488319,-0.452141192 68.9917966,-1.66934196 C69.3265869,-1.98089409 69.5571907,-2.2202404 69.7977724,-2.39630469 C69.0129774,-3.00560026 70.3103325,-3.78126332 70.4136649,-4.66079041 C70.158948,-4.92631502 70.0035329,-4.57708263 69.792301,-4.573183 C69.7768644,-4.71053337 70.0383193,-5.15188867 70.2250385,-5.10984296 C70.305148,-5.64136357 71.015107,-5.84920628 71.5421398,-6.60644529 C71.2157398,-6.96133012 71.1083367,-6.6726762 70.932541,-6.8059975 C71.0621012,-6.94594408 71.1786129,-7.08525432 71.040035,-7.21187574 C70.855356,-7.28547018 70.7957098,-7.29648356 70.7260519,-7.3686641 C69.9818141,-7.25511338 69.6828495,-6.38792343 68.992358,-6.30993471 C68.4700882,-6.66235277 68.3473141,-6.56294989 67.8397834,-6.65485917 C67.8662873,-6.80898507 67.7761202,-6.95729686 67.9950286,-7.1209924 C67.5073555,-7.49455145 67.5020428,-6.62154486 67.0790755,-7.07638536 C67.202509,-7.26469868 67.3771192,-7.13716193 67.500048,-7.3258857 C67.1972511,-7.65407722 66.9963029,-7.35097903 66.7280798,-7.45984183 C66.8397328,-7.69469235 66.9288728,-7.92856926 67.0758266,-8.16470626 C66.9301913,-8.23386522 66.9252222,-8.38626979 66.4850998,-8.24982351 C66.1691988,-8.79702343 67.0146348,-9.09929477 66.9252222,-8.38626979 C67.591625,-8.44474872 67.7230529,-8.90829093 68.2004263,-9.4225774 C67.9745676,-9.70212636 68.2268134,-9.64910545 68.2898139,-9.94280364 C67.9497716,-10.2600423 67.8098591,-9.69788516 67.5727039,-9.73542018 C67.3960702,-10.0874158 67.9304287,-10.3770026 68.0282057,-10.8464863 C67.9759583,-11.0159147 67.866141,-11.1823491 68.0027142,-11.361048 C68.6475934,-11.8467712 69.0262404,-12.6770128 69.1015616,-13.1331573 C69.1761396,-12.985204 68.9982218,-12.7790684 69.2712989,-12.7974823 C69.6965275,-13.1051165 69.1356891,-13.3641028 69.3055673,-13.6587246 C69.837993,-14.4174697 69.9511742,-15.0822425 70.7597904,-15.7347508 C70.5776133,-16.0280526 70.5314727,-15.4785483 70.3495564,-15.7721736 C71.1747706,-16.6784526 70.9691521,-17.7894102 72.0070197,-18.373854 C72.0607886,-18.7773608 72.2312285,-19.1866817 72.5585114,-19.6039623 C72.5441223,-19.7747397 72.5225823,-19.9459764 72.5330199,-20.1185239 C72.7755763,-20.1467612 72.8988652,-20.517299 72.8996389,-20.7089534 C72.7456669,-20.9118312 72.8802933,-21.1285348 72.8555191,-21.3372161 C71.8941673,-20.8849733 71.4345413,-19.5646245 70.7395661,-18.7131139 C70.9300816,-18.4933724 70.8936974,-18.3767399 70.8133134,-18.2583967 L70.8301868,-18.6886944 C70.7026327,-18.5781817 70.5508647,-18.4562951 70.6411253,-18.2500616 C70.2100633,-17.6584783 69.5038264,-17.284248 69.4668453,-16.5885723 C69.5981183,-15.990664 69.1662637,-16.2261695 69.0154796,-16.1656134 C69.034869,-16.1471673 69.3178633,-15.7001065 69.089227,-15.7108963 C69.0022199,-15.7055965 68.90623,-15.5865544 68.8673586,-15.298943 C68.7232777,-15.3534476 68.6125448,-15.207831 68.475492,-15.2223413 C68.3485299,-14.9415592 68.1858154,-14.6154023 67.8615131,-14.7345202 C67.741876,-14.3685111 67.6413801,-13.9526568 67.3873831,-13.737155 C67.6486675,-13.5782317 67.6893975,-13.4079931 67.6423719,-13.233599 C67.381875,-13.0432007 67.3253378,-13.0249053 67.265749,-13.0235531 C67.3834843,-13.1913268 67.2797492,-13.2906843 67.2337219,-13.3538242 C67.0045344,-13.2665102 67.0205756,-13.0552898 67.1153297,-12.9219941 C66.6818204,-12.4009589 66.0712949,-11.4272104 65.5971782,-11.2434241 C65.3400444,-11.1670534 65.2350752,-11.2213522 65.1573166,-11.1073013 C65.2980109,-10.9532495 65.3895708,-11.0989255 65.5376791,-10.8970669 C65.3465048,-10.7729478 65.5063699,-10.6665075 65.3638057,-10.5446347 C65.140253,-10.3782887 64.8346313,-10.721632 64.6283283,-10.4512757 C64.8135463,-10.2519106 64.9926137,-10.3703428 65.0270582,-10.1270168 C64.8792899,-9.96759863 64.7541262,-9.67142823 64.557569,-9.81734847 C64.275582,-10.3112594 64.447305,-10.6890071 64.8800852,-11.037098 C64.8685309,-11.4642691 64.818136,-11.0639102 64.6625968,-11.3125181 C64.6944195,-11.3519831 64.6074777,-11.6535342 64.6074777,-11.6535342 C64.0100459,-11.4163115 63.7421159,-10.2207288 63.0611399,-10.1462496 C62.9527477,-10.2740324 63.1948903,-10.4199045 62.9396414,-10.5407118 C62.3347023,-10.4092176 62.4416201,-9.4245887 61.6935602,-9.67836019 C61.9041234,-10.0389834 62.5668783,-10.2525418 62.1970569,-10.8489474 C61.8958654,-11.1656568 61.6427819,-11.1824019 61.4064605,-11.0966046 C61.4716276,-11.7484698 62.3406788,-12.3753974 62.874671,-12.3712329 C63.0062115,-12.7302398 62.5463786,-13.0543779 62.8055645,-13.5136468 C62.8900243,-13.6629543 63.1841256,-13.7488969 63.3230486,-13.8828362 C63.7206001,-14.2660035 64.1326966,-15.0299435 64.4106527,-15.3684329 C65.095875,-16.2016301 65.7247794,-17.6676538 66.6343607,-18.3987368 C66.6523178,-18.8169054 66.7223801,-19.0727242 67.107969,-19.395455 C67.1427117,-19.5691257 67.1626139,-19.7420105 67.1973565,-19.9156812 C67.8273024,-20.2035901 68.263165,-21.0944239 68.4108221,-21.6931316 C68.9807445,-21.9366575 69.1545918,-22.6061912 69.6977912,-23.0165989 C69.5175604,-23.5268461 69.8793493,-23.7205683 70.352397,-23.9652121 C69.9987356,-24.3577993 70.8414172,-24.5043061 70.6161627,-24.8374601 C69.2926499,-23.6583316 68.1152587,-22.073822 67.0498619,-20.8251155 C66.9625962,-20.7718213 66.8662264,-20.7725288 66.754507,-20.8682028 C66.7606836,-20.233304 66.2191338,-19.9575994 65.6965304,-19.5561517 C65.654359,-19.3815593 65.8964534,-19.221638 65.7220219,-19.04159 C65.4492396,-19.0256144 65.0819006,-19.0436864 65.0416637,-18.607215 C65.4783202,-18.0335847 64.826606,-17.5839497 64.4718046,-17.4911312 C64.6066926,-17.3257331 64.7725318,-17.1614093 64.6119143,-16.9819107 C64.4717417,-17.1366095 64.3791554,-16.9906969 64.231308,-17.192879 C63.8165566,-16.3271899 63.2779246,-16.233362 62.6739708,-15.3983479 C62.6689074,-15.0189698 62.8170771,-14.8368788 62.640468,-14.5370186 C62.2504602,-13.8750917 61.5161804,-14.1272977 61.0798819,-13.8308084 C60.7358559,-13.5969317 60.864111,-13.1455565 60.3885243,-13.1091867 C60.6485817,-12.5072417 60.5962852,-11.7811723 60.0363975,-11.716949 C59.9921413,-11.6195729 60.0392247,-11.5266512 59.9102752,-11.4247718 C60.1437131,-11.2033323 60.2102348,-11.0153327 60.2796383,-10.9272908 C59.7500539,-10.4094015 59.4764416,-9.70423688 58.8662861,-9.31132289 L58.5528077,-9.4677008 C58.2949236,-9.18519536 58.2956552,-9.18299354 58.6260503,-9.01339413 C58.280091,-8.40402119 58.4059309,-7.81802986 58.1666733,-7.21454423 C58.3109132,-7.15401859 58.498655,-6.82512612 58.6133981,-6.94980639 C58.7826425,-7.09336641 58.9059681,-7.16339798 59.0532597,-7.08592919 C59.0421221,-6.96536927 58.81836,-6.54692192 59.127007,-6.63121207 C59.0700261,-6.88804484 59.5237421,-7.01129401 59.7289771,-6.83260747 C60.0697394,-7.00647197 60.051584,-7.19745179 60.4093353,-7.26698252 C59.9362184,-7.6554844 60.780509,-8.07759234 60.853316,-8.09015513 C60.9498517,-7.81293857 60.6364547,-7.56004525 60.5236926,-7.27200012 C60.7043551,-7.23487986 60.5096826,-6.60584847 60.1757019,-6.56786963 C60.0289989,-6.0605107 60.252467,-4.99448985 59.3357186,-4.97998805 C59.4471285,-4.8331473 59.1080735,-4.52667016 58.9808476,-4.67566078 C58.7427529,-4.79805049 58.8682244,-4.93810844 58.6298688,-5.06017466 C58.4325086,-4.91698376 58.7202398,-4.79707687 58.5226186,-4.65356248 C58.2943297,-4.877242 58.1544061,-4.55343969 57.9130198,-4.85311469 C57.7633002,-4.82704307 57.6656598,-4.95572308 57.2694133,-4.19174805 C57.018794,-4.2664774 57.3351288,-5.24433819 57.6656598,-4.95572308 C58.2658672,-5.3819008 59.1777226,-5.74477818 58.8678822,-6.44666084 C58.3519144,-6.02856908 57.9500515,-5.67943769 57.470431,-5.80595975 C57.134841,-5.61985482 56.9658235,-5.47450343 56.7900728,-5.3715847 C57.3577624,-4.36038826 55.7810803,-3.70261799 55.4877244,-3.0734976 C55.3115853,-3.15353733 55.1254854,-3.17044142 55.1254854,-3.17044142 C54.6488065,-2.10980489 53.8960937,-1.32453009 53.2755205,-0.330029793 C53.1364935,-0.237416917 52.9802507,-0.250929168 52.8351543,-0.194317445 C52.8948439,0.387690189 52.4298547,0.639958664 52.006675,1.106728 C51.0632419,2.14717972 50.5151628,3.59484229 49.4873513,4.09426809 C48.8718646,4.59639566 48.7433112,5.5341467 47.9236555,5.48834901 C47.9753092,5.69478717 48.0123783,5.55139565 48.189139,5.70424797 C48.0270666,5.8150767 47.8020598,6.29517802 47.479414,6.3118451 C47.28124,6.76074242 47.2892845,7.19952072 47.1752822,7.64456176 C46.7302962,7.33517567 46.7663379,7.78172505 46.3366908,7.45642567 C45.486804,9.11980846 44.2613891,10.1441164 43.0185154,11.5714656 C43.0137634,11.8198729 43.0937049,12.0637769 42.9661404,12.31836 C42.4281866,12.242416 42.3219442,12.8571282 41.9786624,12.9968073 C41.7378048,13.0944484 41.5611246,12.840967 41.3578033,13.0848252 C41.1542826,13.3092393 41.2864969,13.7847231 40.8770708,13.6810062 C41.497411,13.8962564 40.766013,14.6436974 40.2814594,14.2828518 C40.067208,13.3753679 41.5967014,13.0455788 40.9818377,12.1861601 C40.5813742,12.3843166 40.6005059,12.9606574 40.1572337,12.7994218 C39.7438874,13.1472486 39.1248271,13.5056049 38.8220258,14.1816761 C38.6321402,13.970481 38.9423983,13.5307856 39.1700165,13.4775456 C39.1587511,13.2873485 39.0124073,13.1029931 39.0784065,12.9092145 C39.5936235,12.4423073 40.1643534,12.0050123 40.0991266,11.3697613 C39.8124618,11.1355658 39.923708,11.0535685 39.8635316,10.9799933 C39.2162878,11.4696853 38.9952383,12.0536993 38.8604134,12.633384 C38.5166344,12.3259612 38.4747802,12.0026954 38.1888321,11.691955 C37.7648819,11.8083453 37.5342611,12.048749 37.2243622,11.7967301 C37.4546801,11.750506 37.2105349,11.5112536 37.2654939,11.3363484 C37.3078202,11.1999102 37.464939,11.2703737 37.5241141,11.1513867 C37.6768148,10.8438668 37.773576,10.3580243 38.2272196,10.1436629 C38.3752421,9.8409083 37.9100798,9.41870467 38.1101181,9.06077006 C38.3044179,8.70995211 38.8607319,8.50195758 39.3699429,8.99908233 C39.8394276,8.59407202 39.2041386,8.2429393 39.1862181,7.86200952 C39.526908,7.4695577 39.95387,7.61163771 40.3061771,7.29183516 C39.9755438,6.75461444 40.5944027,6.45661818 40.8576688,6.06172688 C40.9205424,5.96717197 40.8821536,5.77848409 40.9651629,5.65584864 C41.0589176,5.51677808 41.2547512,5.46875517 41.2725436,5.41145287 C41.4196729,4.92532936 41.189208,4.61418288 41.0038113,4.10723301 C40.8972308,4.28086441 40.7411128,4.14801298 40.5935773,4.06981025 C40.1433703,4.89863163 39.9257696,5.74575608 39.2542333,6.14017182 C38.8766582,6.36176241 38.653788,6.32620331 38.3931384,6.52611845 C37.7070599,7.60392808 37.651605,9.06871141 36.398423,9.54500628 C36.3813392,9.71750504 36.3959721,9.8890164 36.3095571,10.0645855 C35.670426,10.0166965 35.6575823,10.6420192 35.4256979,11.0249384 C35.3466755,11.1540297 35.1600795,11.199924 35.0705831,11.3285317 C34.8738359,11.6088015 34.9202966,12.0911399 34.7294556,12.4335228 C34.4564855,12.9233594 33.7358769,13.380705 33.5867324,13.5781034 C33.4167035,13.802438 33.4072566,14.184143 33.257109,14.3962584 C32.8247153,15.0071119 32.0548899,15.3451628 31.8626459,16.1256039 C31.6315204,16.3655972 31.3127952,16.0581956 31.0791736,16.2784839 C30.8307015,16.7711035 30.7320343,17.4873145 30.1723062,17.812509 C30.3372864,17.9188241 30.410927,18.0295937 30.3423043,18.1478605 C29.9645579,18.5873045 30.0213803,19.0930664 29.4356978,19.6815621 C29.2281474,19.7109513 29.0162856,19.7063045 28.8329622,19.8828706 C28.5858877,20.4317945 27.9555792,20.7263713 27.7269906,21.2544427 C27.5451245,21.6748247 27.8913764,22.1149471 27.5671046,22.4082727 C27.3478631,22.4811795 27.0844389,22.2803454 26.8612549,22.3280861 C26.8055244,22.7423167 26.3164671,22.7259543 26.103535,22.9952043 C25.8123332,23.362557 25.8776846,23.7509938 25.744284,23.9869049 C25.4377904,24.5266068 24.8403672,24.8270382 24.6561752,25.4720911 C24.7993255,25.7598999 24.8740154,25.6299633 24.9704192,25.628556 C25.1133529,25.7705031 24.796991,25.9213621 24.7299225,25.9268082 C24.6632993,25.8726282 24.4639344,25.7104988 24.4639344,25.7104988 C24.0133463,25.7821952 24.0265507,26.3296133 23.8090677,26.6594355 C23.1516627,27.6550484 21.885518,28.6365927 22.1104727,29.7214976 C22.3104223,29.5284583 22.5768473,29.7494079 22.7793268,29.5739587 C22.4483155,29.8093139 22.9222756,29.7946526 22.834446,29.9149748 C22.7044951,29.824292 22.6305371,30.0839055 22.5092026,30.0457565 C22.4195599,30.1994189 22.2392244,30.3650246 22.2478878,30.5739944 C21.9855411,30.4972266 21.8104542,30.6065768 21.5817453,30.3771997 C21.5143565,30.3229328 21.3157572,30.1608903 21.3157572,30.1608903 C21.0817219,30.2635438 21.1451643,30.4522529 20.8827589,30.6978737 C19.5814005,30.6234838 18.4913812,32.2436966 17.9463379,33.2471304 C17.9832935,33.588908 17.8533665,33.7676558 17.9424627,33.9349142 C18.1894597,33.9167155 18.2568716,33.8579878 18.3521919,33.9719265 C18.4064245,34.2725866 18.1259035,34.0857004 17.9975818,34.2759303 C18.0720325,34.3680767 18.0556653,34.4640306 18.215575,34.5517607 C18.3878312,34.666671 18.484201,34.6673785 18.5956766,34.7623186 C18.4759096,34.8973748 18.7519499,35.1882744 18.5910358,35.4500154 C18.4631913,35.6583084 18.0769362,35.7994617 17.8445591,35.8306209 C17.7472855,35.6631398 17.7943112,35.4887457 17.590075,35.3274754 C17.2735833,35.2473814 16.7139548,35.5185604 16.6667539,34.9708113 C16.4347249,35.171506 16.1076131,35.2434582 16.1857606,35.5673158 C16.3521864,35.2966668 16.3150012,35.7500814 16.5477387,35.6645831 C16.3385444,36.5613927 15.4495487,37.4275861 14.7871614,37.9847685 C14.8583411,38.7110936 14.621863,38.966016 14.0061724,39.2258825 C13.8120381,39.5982593 13.9436118,39.954317 13.5509314,40.3366251 C13.1550886,40.3901757 12.7632559,40.4646626 12.338597,40.3383814 C11.9281029,40.6837073 11.7646551,41.2149415 11.4434945,41.5852468 C11.1069611,41.9735803 10.3683985,42.1795861 10.596387,42.7725913 C10.7052876,42.6137012 10.8488467,42.6688528 10.9882536,42.6959895 C10.9881564,42.9251511 11.0315544,43.1521915 10.8687337,43.3893509 C10.2569549,43.2619399 9.27611983,43.3828648 9.34616966,44.3230501 C9.19447595,44.4562448 9.00228111,44.3411882 8.85780838,44.5182835 C7.99839656,45.6120667 7.3328464,46.8126211 6.34611352,47.9067712 C6.26543899,47.9954196 6.08477874,48.0059703 5.97237045,48.0966635 C5.70534189,48.3117442 5.61373584,48.6834095 5.36575959,48.9857557 C5.30371304,49.06063 5.13578097,49.0108313 5.08877207,49.0566928 C4.75452683,49.3820784 4.41891837,49.903995 4.12678553,50.2497018 C3.53761472,50.9440894 2.95520517,51.918207 2.36570345,52.5694768 C1.96073183,53.0167745 1.40974922,53.2430305 1.76595587,53.8594296 C2.16980841,53.7368719 2.36042098,53.7274518 2.58668463,53.9339516 C2.4286636,54.4615649 1.71042819,54.9781505 1.24021649,55.603776 C1.10745781,55.496884 1.02421961,55.6975322 0.878238361,55.5065087 C0.922954751,55.4282532 0.576888009,55.3112533 0.576888009,55.3112533 C-0.702089596,55.9293955 -1.43221605,57.3147092 -2.58305172,58.0247412 C-2.58234638,58.681971 -3.61692799,58.7109829 -3.78527405,59.5156789 C-3.28810928,59.6162979 -2.97388744,59.296053 -2.57267873,59.5135992 C-3.35476124,61.1416046 -4.59798131,62.1921392 -5.58449981,63.38448 C-6.30639905,64.2569439 -6.95863396,65.2171262 -7.81456634,66.0143337 C-7.88307248,66.0775276 -8.06648964,66.0686969 -8.14005357,66.1443815 C-8.64355796,66.6620555 -8.89620305,67.414801 -9.48652172,67.8142059 C-9.43433234,68.6884482 -10.3222615,69.440353 -11,70.2373232 C-10.6751866,70.3723893 -10.062759,70.4274851 -10.0396662,70.8206553 C-9.80051857,70.4152556 -8.95243703,69.5656011 -8.72008156,70.4122869 C-8.58143685,70.0247784 -8.05319645,69.7500336 -7.73972764,69.3333024 C-7.44165367,69.5574943 -7.3483235,69.1899092 -7.1377576,69.131907 C-6.22074459,68.8299985 -6.26273948,68.1649 -5.65804302,67.5704426 C-5.50972969,67.4248578 -5.05962963,67.2242185 -4.97768482,67.1360675 C-4.96676337,67.124596 -4.97401755,66.3656309 -4.59294237,66.6589286 C-4.3895603,68.212087 -6.38848195,68.5768268 -6.84627794,69.8627781 C-6.10964441,70.0001356 -6.18114399,69.4690475 -5.5269541,69.4547332 C-5.26596227,69.6637658 -5.75664163,69.7644538 -5.63470902,69.8609349 C-5.21118267,69.8984553 -4.89813844,69.2532095 -4.46625653,69.3435872 L-4.75717588,69.932376 C-4.57403481,69.7353085 -4.41907332,69.5099684 -4.40892432,69.227922 C-4.22595854,69.4083161 -4.15610171,69.2449905 -4.0746277,69.1543143 C-4.28817375,68.9040603 -4.34338972,68.9196808 -4.38836695,68.9982599 C-4.42430419,68.8479871 -4.35564562,68.6478013 -4.21449353,68.6458276 C-4.14996763,68.7191908 -4.03186258,68.9427121 -4.03186258,68.9427121 C-3.38801936,68.983721 -3.58098224,67.5938267 -2.70953132,67.5981909 C-2.61156842,67.8342549 -2.75051454,68.0811889 -2.38868491,68.1558399 C-2.28203454,68.9977794 -3.70785459,69.3192184 -3.59528721,70.3341509 C-4.11493114,70.2323908 -5.30180655,71.5156739 -4.99001119,72.0638199 C-4.6222375,72.0388611 -4.59269078,71.7109944 -4.34614388,71.4021298 C-4.08880656,71.31307 -4.03508926,71.629915 -3.85142405,71.6073465 C-3.84038484,71.0785728 -3.91835924,71.4291873 -4.08727986,71.217902 C-3.86539449,70.8048913 -3.55046977,70.9667303 -3.25555173,71.0051775 C-2.93629964,70.6900946 -2.64199499,70.4639879 -2.60094588,70.0565642 C-1.9732176,70.1299947 -1.57456521,68.7857695 -0.896879587,69.1713804 C-0.525329445,69.9946832 -1.58405655,70.2857894 -2.1216054,71.2364009 C-2.27685945,71.5118502 -2.28689585,71.898432 -2.43286135,72.1685804 C-2.71665535,72.695677 -3.1832814,73.1137243 -3.47220964,73.5943325 C-3.52327057,73.940589 -3.46200998,74.2812434 -3.76534209,74.6398026 C-3.74389548,74.7531176 -3.7255281,74.8671421 -3.70996213,74.9804952 C-4.01474669,75.4455306 -4.13323843,75.9313763 -3.73710643,76.2422747 C-2.80952621,76.9709011 -1.24488473,74.450133 -0.280213284,74.412473 C0.398550837,73.2328411 0.985215498,72.790294 1.87223065,72.0156859 C1.91917858,72.244542 1.91239668,72.2529526 1.83135978,72.4757441 C2.12716263,72.7618264 2.10167432,72.804836 2.41107022,72.8491653 C2.06424555,73.3849917 1.59828796,74.0322875 0.901728034,74.5841754 C0.909997805,75.2320242 0.269059009,75.8227175 -0.3119984,76.3619493 C-0.288356639,76.6093447 -0.347599315,76.8600365 -0.134876111,77.0978379 C0.20979668,76.8714502 0.902875416,75.7238125 0.996586909,76.2408274 C1.27451602,76.1749409 1.46938368,75.5974867 1.79105859,75.8007008 C1.66436665,75.4271888 2.36418378,74.799751 2.65653347,74.7273809 C3.48482001,74.649509 4.40003292,73.4398867 4.80510214,73.0183775 C4.9684809,72.9536024 5.13581926,73.0404108 5.13581926,73.0404108 C5.44291921,73.4669045 5.28515728,73.1018688 5.71005594,73.2610171 C5.09738621,74.0975128 4.40084276,74.3933931 4.53358596,75.266193 C4.80065386,75.6542397 4.7390486,75.8290961 4.7104474,76.0024052 C5.51833589,76.2876915 5.79321772,75.2005991 6.22614815,74.6678453 C6.58499935,74.226961 7.09368961,74.1350284 7.17687447,73.7624064 C6.89557358,73.8791118 7.1001819,73.5072186 7.23612968,73.4153153 C8.09756014,72.1956988 8.73956885,71.0761586 9.56295175,70.6665064 C10.2130294,69.4105205 11.2778928,68.6412855 12.0268955,67.3382737 C12.5799968,67.187119 12.72317,66.1348535 13.4098545,65.8957643 C13.5974722,65.6268165 13.9005359,65.7152723 14.1933268,65.7428843 C14.4119474,65.8521151 14.7428634,65.6386423 14.6150649,65.4934709 C14.4906677,65.2000239 14.4246512,65.267385 14.3307094,65.163137 C14.7880393,65.1970821 14.3207774,64.7463907 14.5640819,64.4643476 C15.5029174,63.4555072 16.5407028,62.079367 17.4385204,61.1732142 L17.1536432,60.8435272 C17.0283747,60.715946 17.3470164,60.5664054 17.2613982,60.4373255 C17.2807199,60.5874763 17.5128642,60.793938 17.6414998,60.6478834 C17.5355985,60.0620384 18.1904374,60.102884 18.1638856,59.5906737 C18.3421833,59.5042877 18.5165385,59.3927356 18.6811089,59.2218078 C18.6632138,58.7755543 19.1375449,58.6899587 19.4025988,58.327051 C20.1140843,56.7969606 21.3633381,55.9918211 21.9627934,54.8794527 C22.6504729,54.8173879 22.8807406,54.0571566 23.3641198,53.5509679 C24.0648677,52.8177008 25.0639544,52.1486939 25.3544553,51.2194533 C25.1753618,51.020784 25.5383988,50.3508495 25.7803294,50.2819327 C25.8469526,50.3361127 26.0463176,50.4982422 26.0463176,50.4982422 C26.1141934,50.1715518 26.4779204,49.9526254 26.7746708,50.004346 C25.8790146,51.1741692 24.883538,52.1599786 23.9852228,53.463684 L24.3839527,53.7879428 C25.1951859,53.1954085 25.7236281,53.1152539 25.5563035,52.4698167 C25.9780605,52.1395418 26.0467272,51.7476147 26.4774022,51.7379234 C25.9234606,52.7223374 25.1933996,53.9282754 24.3795727,54.4753161 C24.0791698,55.1453037 23.607887,55.6624008 23.3105968,56.0746138 C22.9759678,56.439858 22.4066311,56.8381153 22.4336178,57.4347699 C22.9592306,57.1166464 23.3007652,57.0858818 23.6018326,56.804751 C23.7887388,57.0901152 23.2902,57.0751474 23.5790682,57.3791572 C24.1943948,57.4607129 24.7013617,56.6475207 24.7217915,56.2345766 C24.2563755,56.2106595 24.0214436,56.5445025 23.7460784,56.6258643 C23.751262,55.90433 24.3305029,55.8129967 24.7371708,55.2599567 C25.3338274,54.449538 25.9263973,53.5592039 26.6126272,52.9341068 L26.8695621,53.0932422 C27.1802725,52.9918837 27.2456992,52.8019243 27.3664719,52.9547723 C27.3407279,52.3762679 28.1268283,52.5217167 28.2322077,51.8811289 C27.7049846,51.8374782 28.0879734,51.4537159 27.6044853,51.5682861 C27.7895304,51.2206542 27.8552438,51.2199978 28.1334735,50.9122606 C28.3522554,51.0751834 28.5350001,51.0143738 28.7611959,51.2251034 C29.0796891,51.0529464 29.3766292,50.551002 29.3499441,50.2223971 C28.7674967,50.2586332 28.7532757,50.4120357 28.4880836,50.6082568 C28.7326281,50.0417428 29.0963989,49.4216811 29.594316,49.2363611 C29.5871874,48.740482 30.2747091,48.2101669 30.6155408,47.6973184 C30.8479543,47.8391904 30.8071316,47.9934552 30.9182807,48.1406195 C31.6025559,47.7967341 32.0003847,47.1572358 32.4459902,46.5196339 C32.0732687,46.3589976 31.8765977,46.5707714 31.6438897,46.5588129 C31.3850257,46.7430406 31.3189072,46.6892711 31.252284,46.6350912 C30.5621949,46.4648847 30.4789405,47.0490156 30.3130618,47.253694 C29.9883639,47.6532593 29.5158024,48.2341252 29.140467,48.5710862 C28.9814528,48.7143959 28.7506031,49.0328123 28.4897364,48.8319156 L28.8264839,48.4142978 C28.6446866,48.2407457 28.5138052,48.3833671 28.3315032,48.2094045 C28.3585118,48.055689 28.26784,47.9069668 28.4872531,47.7436817 C28.6406601,47.5036873 28.8327451,47.8168298 29.0116006,47.7753529 C29.4760578,47.6678018 29.847972,47.0500777 30.1548285,46.6311828 C30.4258818,46.260835 30.8485993,45.8547492 30.9243134,45.676905 C31.0984305,45.1977317 31.6387714,44.9017621 31.874535,44.7710556 C31.8755541,44.245381 32.2711147,44.0978694 32.58864,43.4760852 C32.1983085,43.3932527 32.8766628,43.0359825 32.9665191,42.5980857 C33.3249008,42.7920514 33.5465312,42.1399519 33.875609,42.152618 C34.0665225,42.0288223 33.9069182,41.9220586 34.0497263,41.8009197 C34.3563213,42.0995278 34.4556007,42.1101 34.5998261,42.3468291 C34.9819992,42.3485774 34.6494744,41.8655217 34.9848294,41.8693667 C35.2480223,41.9730676 35.1394098,41.9865064 35.3835593,42.1936256 C35.6311461,42.2980254 35.7769004,42.4872574 35.8604164,42.2852283 C35.6373038,41.9141811 35.7124178,41.7578089 35.8642917,41.5974446 C35.5434394,41.2792079 35.4563038,41.6909301 35.2919493,41.6252944 C35.1769682,41.5098285 35.0905593,41.5734604 34.9777053,41.4688296 C34.5310994,41.3241648 34.4118463,41.7777904 34.1756047,41.5080086 C34.5225607,40.8683808 34.838943,40.3019061 35.1118389,39.8007614 C34.8730674,39.5133894 34.8070509,39.5807504 34.7131091,39.4765025 C34.6675499,39.1132667 34.7442676,39.1756558 34.5735041,38.9676924 C34.7906985,38.5283713 35.113315,38.736636 35.4049714,38.7552913 C35.4441287,38.2745577 35.3900938,38.2006208 35.3608516,38.1270286 C35.5026328,37.7511761 35.4349001,37.4952406 35.805354,37.303209 C35.5482697,36.611557 36.3221527,35.6062239 37.0739387,35.8667747 C37.153048,35.6525922 37.0563851,35.4470438 37.2593163,35.2275064 C37.4846634,35.2361569 37.5641633,35.2526038 37.7063019,35.4919207 L37.9465377,35.193992 C37.7613198,34.9946268 37.6052598,35.2565662 37.5659314,34.9830236 C38.1109842,34.5526989 38.1315017,33.4649592 38.8051493,33.7198114 C38.6135185,33.5377267 38.8954617,33.3331683 38.5989211,33.1568213 C38.8122862,33.0518196 38.8162834,32.9142052 38.8687845,32.685347 C39.1402533,32.2253548 39.7271835,32.0053012 40.0485034,31.768492 C40.3225181,31.9147368 40.5885803,32.0148793 40.8018433,31.7887471 C41.2418438,32.2017361 40.513011,32.502423 40.2618557,32.7320192 C40.1161766,33.0639956 40.0825752,33.389636 40.0169791,33.7176447 C39.7572984,33.7774827 39.4988031,33.8431052 39.2335068,33.8705247 C39.2551572,34.0986257 39.5124463,34.3153594 39.2296315,34.5583085 C39.4314244,34.6168975 39.6308973,34.6607452 39.8206022,34.6441597 C39.9158399,34.8110564 39.8810972,34.9847271 39.7314755,35.1640624 C40.0413739,35.1611312 40.2538805,35.253071 40.3775653,35.5909297 C40.9316163,35.2530844 41.5328461,34.9862783 41.6535349,34.5547091 C41.7373902,34.3315315 41.4424643,34.6123007 41.339291,34.3982442 C41.469112,34.2579741 41.3837546,34.1285708 41.4473067,33.991719 C41.7476476,34.1861535 41.9426852,33.7256001 42.2491464,33.9528635 C42.1724128,34.4014321 41.7265148,35.0891433 41.3239116,35.3728641 C41.5550548,35.5142386 41.535458,35.6680898 41.5122772,35.8222401 C41.0000679,36.5797506 40.611815,36.6860716 40.4241683,37.3074263 C40.4232041,37.6703205 39.9003967,37.8295071 40.2387908,37.9466947 C40.8349667,37.5327712 41.5785783,37.1235908 42.1468628,36.5359435 C42.5547504,36.1140483 42.737918,35.3894279 43.3860808,35.2727313 C43.3857799,35.3871068 43.3448023,35.5032175 43.2117026,35.6247531 C43.4504742,35.912125 43.5169954,35.8451745 43.6104325,35.949012 C43.5587946,36.2037457 43.3583319,36.4606408 43.0932092,36.3178779 C42.7252863,37.0373999 42.4786241,36.9391081 42.2825926,37.7325374 C42.4556825,37.97078 42.5121579,37.8447771 42.5968366,37.8890023 C42.5151868,38.10219 42.3782757,37.9672831 42.2897167,38.1330745 C42.5441538,38.4797842 42.0182162,38.6428526 41.8682225,38.3832219 C41.3560265,38.3271536 41.4829195,38.5128305 41.4651127,38.7463362 C41.7567479,38.798182 42.054226,39.0117127 42.1112025,39.1732035 C41.8524464,39.2391495 41.5739105,39.1834951 41.3463584,39.4397846 C41.435459,39.7023849 41.5124673,39.7944688 41.5342192,39.8887501 C41.3596311,40.2379231 41.0752926,39.9065318 40.865626,40.0359656 C40.7228392,40.251389 40.6526977,40.1456074 40.5768735,40.3940624 C40.4116054,40.5606736 40.2552266,40.4281456 40.1186445,40.4161607 C39.4909421,40.5323566 39.8365498,41.2676113 39.5120337,41.3052528 C39.2507798,41.558773 38.7218557,41.3980475 38.7055532,42.0318051 C39.0552314,42.1308532 39.0105745,42.2691453 39.1709063,42.410244 C39.0861536,42.4821857 38.9802598,42.4217789 38.8939187,42.4811811 C38.2554377,42.9983523 37.9351137,43.9220862 37.3659483,44.1024902 C37.3124238,44.761681 36.9242845,44.3828328 36.6672227,44.4228407 C36.7567748,44.5138777 36.6122192,44.6164561 36.5416051,44.7154284 C36.544216,44.8873396 36.7983325,45.0468611 36.6817149,45.224649 C36.1350564,45.5160165 35.5963568,45.7415492 35.2245038,46.2120307 C35.3146815,46.3437472 35.6414412,46.2618679 35.5571151,46.4825201 C35.3307077,46.4762209 35.0790196,46.4681092 34.9178886,46.4565134 C34.4469305,47.1286655 34.3522952,48.0875725 33.7595422,48.57498 C33.7392724,48.4042407 33.4511255,48.2465031 33.6196763,48.0664933 C33.3524585,47.9905846 32.864716,47.9560094 32.7259658,47.5373411 C32.1357954,47.8318873 32.3677346,48.3857923 32.1078508,48.7132694 C32.2228319,48.8287354 32.3084752,48.7650165 32.4220948,48.8697343 C32.7537026,48.8999905 32.8595965,48.9603973 32.9464423,48.9014055 C33.142639,49.1016647 33.1947804,49.3095708 33.2195545,49.5182521 C32.6102949,49.2975514 32.5081942,49.9568738 32.1840815,50.2562205 C32.4924362,50.3495147 31.7327158,50.6791794 31.7327158,50.6791794 C32.0476848,50.6948332 31.6384586,50.8655105 31.8062023,51.13422 C31.4906271,51.2519754 31.6854421,50.8849726 31.3112216,50.9293267 C31.1916344,50.7822632 31.0934893,50.6531728 30.7567419,51.0707906 C30.4692926,50.9173697 30.9301676,50.6028385 31.0934893,50.6531728 C31.409893,50.1809826 31.9888881,50.1687194 32.1583291,49.7419823 C31.8100886,49.5851865 31.6526156,49.4571247 31.6268576,49.3097739 C31.5283037,49.4133408 31.4222679,49.4733306 31.3016312,49.4394982 C31.2224209,50.0424505 30.3713371,50.1071391 30.1221562,50.3570872 C30.2499955,50.7706317 30.0923958,50.9691883 30.2505179,51.15241 C30.6637972,51.191238 30.5408492,51.3333483 30.6497525,51.4770793 C30.8893127,51.6515436 31.0002843,51.0288938 31.2517225,51.2756839 L30.6267443,52.0507516 C30.3794746,52.5480983 30.3266893,52.7627995 30.0086293,53.2266799 C29.708495,53.4496525 29.8597607,53.5025015 29.6537584,53.5310072 C29.4955694,53.8619155 29.374456,54.0649702 29.2210209,54.0676671 C29.1903006,53.9109247 29.2585031,53.6594852 29.4428894,53.6557139 C29.2827715,53.3578558 29.3209921,53.2223636 29.4653928,53.0816311 C29.5320161,53.1358111 29.7242569,52.8974034 29.7242569,52.8974034 C29.9604593,52.6915329 30.1489566,52.1924531 30.4156144,52.1757818 C30.537754,51.8450155 30.4906706,51.7520938 30.6196202,51.6502144 C30.380026,51.477865 30.2081437,51.7221166 29.9990219,51.7379088 C28.9215648,51.9216585 29.1839147,53.6556022 28.0201906,53.7825872 C27.8715308,54.650962 26.9239066,55.3152217 26.3257317,56.1565421 C26.0960845,56.4796857 25.988454,56.5115981 25.7781152,56.6988667 C25.5716721,56.8823404 25.4957631,57.1360824 25.2973828,57.2950477 C25.0723223,57.4757001 24.7110589,57.3816921 24.7319036,57.7237581 C24.8194132,57.6711979 24.915783,57.6719054 25.0272585,57.7668455 C23.8026542,59.0274805 22.9745924,61.2586821 21.2398548,62.1912303 C21.2955313,62.3222055 21.3783312,62.4516714 21.2467181,62.592091 C21.0203974,62.5007006 20.8517089,62.7689739 20.6628716,62.9067769 C20.2269605,62.8763244 19.9527193,62.9832384 19.8794018,63.234803 C20.0368714,63.7774231 20.0202967,64.0456742 19.852255,64.3214364 C19.3073669,64.3908949 19.1080349,64.816355 18.6725361,65.2382915 C18.4879084,65.4164749 18.2243852,65.5246064 18.107057,65.667002 C17.9073875,65.9063313 17.8651782,66.2426467 17.6628155,66.4904981 C17.3235613,66.9050062 16.6849163,67.0658642 16.5200922,67.6350786 C16.3806854,67.6079419 16.2371262,67.5527903 16.1284865,67.7113569 C15.2240087,69.0486145 14.2207839,69.385928 13.5428004,70.6443935 C13.8545485,70.9086285 14.004302,70.880442 14.1707667,70.9579702 C14.1958046,70.4968196 14.5953902,70.3215159 14.7957449,70.1829026 C14.838098,69.6463865 15.2821455,69.4086886 15.5172348,69.2881458 C15.5833533,69.3419153 15.6779189,69.5666468 15.6779189,69.5666468 C16.1875913,69.6206629 16.7421581,68.4219782 17.0655512,68.8686848 C16.9572574,69.1491158 16.7635651,68.9042953 16.6443178,69.1185086 C16.6186855,69.2342438 16.8924033,69.335256 16.8140552,69.4541836 C16.8544353,69.662166 16.8101792,69.7595422 16.9355536,69.8486458 C17.4826061,69.3733493 17.572002,68.7888568 18.3075133,68.693383 C17.7862876,69.8217009 16.5378846,70.8765903 16.0061827,71.9567536 C15.5006604,72.9826861 14.5397074,73.4738169 13.9198573,74.4073102 C14.2021197,74.7246942 14.2765146,74.4697208 14.4153427,74.612614 C14.6558054,74.3164766 14.7976972,74.1249634 14.9986845,74.2975176 C15.6562329,73.9463585 15.5760114,73.6561644 16.1122849,73.326893 C17.0185047,71.4029538 19.0796194,69.9661554 20.4769326,68.186638 C20.8859101,67.6649347 21.3150931,67.031117 21.8713958,66.4572926 C22.1929551,66.1258753 22.6084077,65.9495492 22.8402456,65.6651442 C22.9429836,65.5398064 22.9532388,65.3467573 23.062114,65.2531909 C23.3047357,65.0455779 23.6263807,65.0912988 23.6462214,64.9381815 C23.7275911,63.5790991 25.4129933,62.6621331 26.0621702,61.6694698 C26.3051245,61.2976955 26.4182531,60.8433741 26.6136619,60.4393616 C26.9247352,60.4588102 27.1734854,60.0922847 27.4931242,60.1674394 C27.4404554,59.2274631 28.3315981,58.8011435 28.8993523,58.1509344 C29.213697,57.7911544 29.3623469,57.3218001 29.6803413,56.9098204 C29.9168849,56.6029974 30.3010575,56.4322989 30.534312,56.1233366 C30.5768802,56.0674365 30.5704435,55.8152863 30.594072,55.776656 C30.8609029,55.334852 31.3504602,55.1288079 31.6405444,54.751441 C31.7611723,54.5945894 31.7770726,54.336502 31.8925451,54.1663526 C32.0360635,53.953131 32.303476,53.8256668 32.4396569,53.6236176 C32.5601193,53.4452072 32.5571648,53.1991025 32.6913968,53.0388527 C32.9994749,52.6712986 33.3912584,52.3927048 33.5754999,52.0792338 C33.974478,51.399964 34.6551052,50.7735241 35.0958414,50.0569772 C35.9143047,48.7268977 36.9269033,47.5343417 37.9623903,46.3652197 C37.9678004,45.3905266 39.0711974,45.1196791 39.5493551,44.397143 C39.5902161,44.3361053 39.5770781,44.1192117 39.609115,44.0504623 C40.1186325,42.9667195 41.0407154,42.3009707 41.610189,41.4320247 C41.760608,41.2029905 41.7766905,40.8379296 41.9400732,40.6135462 C42.1952151,40.2629309 42.7111155,40.1040189 42.9382898,39.6481758 C42.9752657,39.5743376 42.9436758,39.3761817 42.9977889,39.3018186 C43.4251651,38.7168788 44.1730542,38.3438492 44.0489021,37.5889068 C44.8235395,37.3174354 45.2350061,36.544949 45.738981,35.9023252 C46.4209522,35.0327408 47.1230827,34.2770314 47.9215573,33.332403 C47.7299411,33.1015899 47.6449616,33.1717402 47.5409509,33.1214346 C48.8101111,31.0116726 50.9548178,29.1768741 51.9214828,27.0069703 C52.8079286,26.7937526 52.8938061,26.1576585 53.5997967,25.6075483 C53.7816557,24.7892033 54.6413148,24.3812003 55.1387665,23.6989926 C55.1986181,23.6175129 55.1568044,23.4351451 55.1985264,23.352312 C55.3962892,22.9609259 55.7580524,22.7050523 56.0823687,22.3930166 C55.9003251,22.0435844 56.8103231,21.8602324 56.7852304,21.3845588 C56.9193904,21.2606719 57.1053569,21.4611814 57.2250919,21.248436 C57.1793543,20.7050906 58.1116569,20.1831618 58.0837035,19.7742554 C58.0496662,19.5055514 58.8767709,19.1348116 58.7383094,18.8256422 C59.0025663,18.6399084 59.3126916,18.6387686 59.5332858,18.3859261 C59.6950314,18.1998464 59.6798553,17.9346975 59.8332815,17.7413166 C60.1445682,17.3490557 60.6634756,17.098322 60.994633,16.7104371 C61.0769574,16.6145607 61.0410624,16.3979068 61.1018832,16.3038249 C61.1812746,16.1836034 61.3289861,16.2667697 61.4273704,16.1737771 C61.8806468,15.7432667 61.8937641,15.1486963 62.3224729,14.9269117 C62.1575987,14.7821189 62.0328963,14.6351805 62.0199939,14.4832872 C62.2529457,14.4959796 62.4542568,14.3136885 62.6704636,14.2227812 C62.6152029,14.1296367 62.4212094,13.8717167 62.4212094,13.8717167 C61.5786004,14.2368108 60.9011936,15.459324 60.329915,16.1698688 C60.0142788,16.5623418 59.5963413,16.9573178 59.3679284,17.3628778 C59.2351698,17.2559857 59.1519316,17.4566339 59.0059503,17.2656105 C60.6198836,15.2578704 62.3931208,12.6266152 64.1332028,10.7712745 C64.1475928,10.3523476 64.0860795,9.82027528 64.5700763,9.54650732 C64.4229108,8.88747004 65.0736829,8.17783425 65.7243036,8.11509061 C66.1052517,7.38045187 66.5681969,7.31934032 66.974521,6.5646318 C66.4771998,5.66100825 67.42847,5.2316321 67.9705151,4.51070395 C68.2833639,3.68640591 69.1113352,2.92698342 69.8645997,2.298555 C69.7746829,2.166515 69.4474014,2.24904135 69.5319883,2.02806562 C70.9872516,0.492778951 71.584881,-0.617325101 72.8800352,-2.25978598 C73.0426425,-2.08523583 73.1213146,-2.43153361 73.2719018,-2.33638772 C74.2605872,-2.65981585 74.5930746,-3.95929634 75.3280949,-4.61380927 C74.9227358,-4.93917438 75.2566039,-5.08168849 75.2543475,-5.06852639 C75.3094187,-5.3938465 75.0976523,-5.4203756 75.4580925,-5.59377023 C75.5695193,-5.4479869 75.5361615,-5.2490876 75.7422041,-5.26417025 C76.0340021,-5.49338666 76.0664328,-5.87354003 76.3015855,-6.0936544 C76.5273988,-6.3052956 76.8726235,-6.24736188 76.9336879,-6.46818491 C77.5258039,-8.46170644 79.0976089,-9.97881 79.7536337,-11.8764391 C78.9782143,-11.349047 78.7157969,-10.7520767 78.0931824,-10.363403" id="Fill-194-Copy-2" fill="#7C2C3B"></path>
            <path d="M71.8570658,-21.7525241 C72.0112883,-21.4058994 71.7263793,-21.6858005 71.5320833,-21.6220658 C71.5431112,-21.4170648 71.4016714,-21.0146898 71.2320875,-20.9774564 L70.9551,-20.9065192 C70.8756513,-20.7986633 70.7902349,-20.733153 70.6959752,-20.721968 C69.7667933,-20.6495551 69.705885,-19.7532026 69.1021471,-19.154752 C69.231787,-18.6781482 69.3878469,-18.9400875 69.5669954,-18.7767236 C69.4275527,-18.7219414 69.2786029,-18.7279159 69.1435903,-18.6464998 C68.7958983,-18.1044159 68.6564752,-17.74807 68.0992897,-17.5016848 C68.1885575,-17.4248047 68.4700772,-17.3479774 68.4700772,-17.3479774 C68.1807689,-17.1145939 68.029427,-17.0989469 67.8955448,-16.9764409 C67.8589784,-16.7528349 68.3589761,-16.8288054 68.2942746,-16.652182 C68.0445465,-16.4637384 68.0149422,-16.2757124 67.8434137,-16.2288126 C67.4156391,-16.5274156 67.4623946,-16.0475155 67.1625508,-15.794848 C67.5849258,-15.637752 67.3855604,-14.9552269 66.8998115,-14.9228366 C66.5607757,-14.5697459 66.5011345,-14.2304672 66.2745724,-14.1474454 C66.190901,-14.2385206 66.0563184,-14.4229524 66.0563184,-14.4229524 C65.9453926,-14.281242 65.8008749,-14.3403867 65.7019691,-14.1192721 C65.6753532,-13.8147313 66.1048275,-14.036429 66.0340758,-13.8491932 C66.0342796,-13.7344072 65.9927803,-13.6176495 65.8602024,-13.4967609 C65.547963,-13.3479055 65.8359551,-13.2283221 65.638334,-13.0848077 C65.1133633,-12.9820123 65.1214991,-12.5329833 64.8688491,-12.1305299 C64.2026415,-12.0204738 64.216739,-11.2896867 63.9252469,-10.8245538 C63.8176739,-10.6528007 63.5650106,-10.5363732 63.4261301,-10.3413399 C63.0662441,-9.83595281 62.9039842,-9.12378805 62.2900263,-8.79663259 C62.2933582,-8.6059243 62.2357971,-8.41224638 62.1531484,-8.21647485 C62.0566707,-8.09890061 61.9104117,-8.28854314 61.8276612,-8.08642707 C60.9729957,-6.87416376 60.409189,-5.72102142 59.2679714,-4.63841831 C59.1665654,-4.4048755 59.2212199,-4.17832192 59.0345988,-3.93962891 C58.4392625,-3.64178534 58.0572944,-2.89137224 57.5249958,-2.20429538 C57.5320708,-2.00786512 57.8891244,-2.08171252 57.7611125,-1.81517434 C57.5467871,-1.50688663 57.1435927,-1.01101005 56.914005,-0.627829918 C56.7642731,-0.377883855 56.4366315,-0.113543448 56.3372826,0.0873932084 C56.2559084,0.251529041 56.3521639,0.354980463 56.2292668,0.493918421 C56.014689,0.73826337 55.607293,1.00201824 55.2721819,0.99890716 C54.9213151,1.43610799 55.2816605,1.66702095 55.0750395,1.92533513 C54.9384574,1.91335016 54.7823394,1.78049874 54.6655711,1.88799933 C54.7434597,2.13237639 55.1496138,2.36037168 54.8424325,2.6242115 C54.6094863,2.24463166 54.3585869,2.12361224 54.2849647,1.67703101 C54.0100313,2.38487051 53.6284759,2.74301811 53.5294672,3.43270661 C53.6432036,3.60982655 53.9836267,3.4571105 53.9100736,3.64367493 C53.5345405,3.75391269 53.8146778,3.98065741 53.6580729,4.22876331 C53.4009307,4.36940023 53.2580366,3.85845087 53.1150972,4.08339107 C52.7868257,4.33918513 53.4863049,4.37027107 53.1592169,4.71165376 C52.9893825,4.6051403 52.9116532,4.49425936 52.8746005,4.38164332 C52.7647584,4.53548278 52.653067,4.6771062 52.5194857,4.68523666 C52.481683,4.90623046 52.889635,4.89466392 52.8041021,5.0152471 C52.6326397,5.26519632 52.3728289,4.9666063 52.2016273,5.21623204 C52.0214575,5.53087175 51.6898001,6.14116318 51.2031499,6.18192596 C51.2233478,6.5165031 50.9081016,6.75718038 50.7106525,7.06526659 C50.3679504,7.59908952 50.22843,8.05712188 50.014915,8.47426152 C49.8002181,8.59853335 49.5855717,8.46468278 49.489802,8.44250333 C49.6279179,8.75728335 49.1942521,8.47531389 49.0981962,8.51878159 C49.520485,9.01591898 49.5405219,9.42427917 49.137936,9.83441757 C49.1035031,10.0843966 49.463083,10.3152226 49.4294156,10.5652886 C49.0914616,11.0103125 48.5807871,11.4809137 48.5225482,12.0993137 C48.0924902,12.0864758 48.0244006,12.5699256 47.6612094,12.4845264 C47.8073094,12.6681479 47.6832185,12.8655676 47.7533242,13.0532681 C47.5850954,13.0857118 47.4261637,13.1760634 47.2282112,13.0215099 C47.1033985,12.8177072 47.1947906,12.6028014 47.0699779,12.3989987 C46.4216775,12.6039588 46.4793104,13.3460476 45.8792597,13.6031004 C46.0071054,14.0321827 46.2474504,14.2533476 46.5324736,14.4305048 C46.281365,14.6890618 46.3754406,14.8646545 46.0811079,14.8534637 C45.8083691,14.3408289 45.1613513,14.322412 44.869539,14.8553069 C45.133525,14.941442 45.4377512,15.276152 45.6785028,15.2169886 C45.6720319,15.9390829 44.765666,16.9159472 44.0062866,17.0171842 C43.9938503,17.7446038 43.1580394,17.7178047 42.7310825,18.0534919 C42.6965136,18.1844552 42.8770795,18.7056872 42.4905859,18.3517441 C42.251478,18.5156168 42.7484456,18.6444626 42.5638285,18.8060508 C42.3447531,19.2829417 41.9613186,19.4713799 41.92759,19.8686885 C41.740676,19.9025407 41.5795263,20.0992815 41.3728494,20.0104759 C41.2986628,20.4755772 41.1631541,20.6197917 40.9176085,21.1212186 C40.987926,21.2319637 41.3171609,21.3304549 41.2014593,21.451142 C40.963367,21.5038984 41.0650193,21.4462355 40.8216185,21.2402607 C40.177366,22.2765636 39.1430654,22.8617658 38.3799174,23.9947341 C38.2429997,23.7168144 38.0611117,23.7879616 37.8188182,23.7360713 C38.2673249,23.1726004 37.5426889,22.3829873 38.4596975,21.9857368 C38.425253,21.7424109 38.2459248,21.8611665 38.0609676,21.6614779 C37.5064746,21.516916 37.5318938,21.9403654 37.6282302,22.1981379 C37.3581239,22.0791739 37.1534603,22.3588974 36.8557573,22.0637713 C36.8171352,21.8577542 37.0248596,21.9131328 37.1628771,21.819699 C37.0141751,21.6548502 36.9243133,21.4875049 36.9083931,21.3165535 C37.008853,20.9826181 37.5547267,20.64455 37.8951056,20.6380192 C37.8293462,19.8925353 38.6759763,19.6592573 39.0493329,19.2066025 C39.0733134,19.1778994 39.0519384,18.7732715 39.1384596,18.6866997 C39.1792422,18.646487 39.3594892,18.7732516 39.4154471,18.6157626 C39.5680374,18.2513784 39.7998097,18.018874 40.0225627,17.7270808 C39.7862472,17.5734659 39.6322106,17.932389 39.3649688,17.5870497 C39.5771116,17.0482821 40.3448085,17.0341503 40.7552959,16.5458114 C41.5198629,16.6630365 40.9846695,17.2915203 40.6135334,17.812932 C40.2968051,18.2575423 39.9025283,18.8190522 39.5555569,19.1249831 C39.3929587,19.2685919 39.1779117,19.3031324 39.0863285,19.434328 C38.9539352,19.623389 38.7525197,20.6090083 38.6009553,20.7182058 C39.1234645,20.9760158 39.3745015,19.9091671 39.8355324,20.1426903 C39.9711859,20.3081755 39.7913785,20.4886721 40.0902773,20.6455124 C40.5173209,20.224734 40.9975177,18.9607489 40.9642682,18.196712 C41.1288386,18.0257841 41.3767482,18.365043 41.518748,18.0552481 C41.4148538,17.9498695 41.2525558,17.5966776 41.5713838,17.3080303 C41.7197989,17.156101 41.9280072,17.3725556 42.0957313,17.3397015 C41.7627757,16.7400684 42.9578225,15.6964203 43.423832,15.5558525 C44.2161255,13.8809834 46.2654359,12.1282172 47.7999839,10.1287615 C47.7749044,9.93911375 47.6413482,9.75444547 47.3645023,9.57751098 C47.3890638,9.48072239 47.3000691,9.17964437 47.3000691,9.17964437 C46.871099,9.14680234 46.5869465,9.64843387 46.2376801,9.74682471 C45.9732521,9.1782823 46.7455881,8.6837329 47.1624102,8.32641366 C47.0920927,8.21566849 46.762353,8.11676683 46.8782986,7.99681368 C47.4896388,8.32686368 47.7907078,6.738849 48.438119,7.29051651 C48.3882394,7.67469061 47.5883112,8.08841982 47.8383715,8.58046932 C48.5835029,8.90523765 49.0695739,7.62567652 49.8084259,7.91159492 C49.5618399,7.74480725 49.7237613,7.43621615 49.2215913,7.1376365 C49.3468397,6.70870392 49.7017915,6.55869773 50.0459345,6.52469828 C50.1579871,6.71116109 50.0838299,7.07880565 50.3670418,7.0820238 C50.7595672,6.66156147 51.0272273,6.24774794 51.1480308,5.84090986 C50.8360218,5.57699837 50.6865291,5.60486135 50.5198037,5.52765663 C51.6872814,4.29019368 52.8677938,2.51111839 54.1335948,1.45538051 C54.1131544,0.785315191 54.6755354,0.438175774 55.1844472,-0.257207758 C55.0027409,-0.547984226 54.9245056,-0.197046307 54.755585,-0.408331543 C54.8209672,-0.579580863 54.987242,-1.04799227 55.2552065,-0.891135018 C55.3619439,-1.10641634 55.3280194,-1.14311009 55.3808241,-1.18372269 C55.5676192,-1.33764799 55.8202598,-1.08613077 56.0019271,-1.27100662 C55.9509386,-1.80576751 56.6365712,-2.10677159 56.9452854,-2.57771664 L56.5942897,-2.9611731 C56.9005933,-3.07468502 56.9879229,-2.97260072 57.0620936,-2.92674437 C57.2035036,-3.35913768 56.8152182,-3.58545614 56.8575506,-3.83383155 C56.9750846,-3.94124518 57.1312025,-3.80839375 57.2677846,-3.79640879 C57.3300005,-4.00933243 57.5447222,-4.45387808 57.8332637,-4.22511927 C57.9217611,-4.49861823 58.2962567,-4.84697435 58.573121,-5.00585151 C58.6604209,-4.93378549 58.7911142,-4.73002104 58.7911142,-4.73002104 C59.1363042,-5.05239769 59.1537504,-5.35903953 59.44572,-5.67863427 C59.3603137,-5.88466943 59.084034,-6.08096101 59.2874868,-6.30114541 C59.4782412,-6.43096211 59.7292426,-6.18881215 59.9453415,-6.16143774 C59.9787436,-6.50652223 60.0837905,-6.85547361 60.4672057,-7.21800045 C60.2226553,-7.5116788 60.1926645,-7.58641536 60.1647266,-7.66162494 C59.8423592,-7.39138863 59.5939829,-6.66570126 59.2140003,-6.75618602 C59.2011994,-7.041899 59.4539789,-7.34087456 59.5916186,-7.63386208 C58.6745722,-7.07488855 57.7164427,-6.10637656 57.3059283,-5.34543487 C57.2313465,-5.2063049 57.2647835,-5.04360395 57.1986781,-4.93882269 C57.1480471,-4.8584141 56.9746479,-4.91801492 56.939814,-4.75459495 C57.270795,-4.30278893 56.752557,-4.41251106 56.5550716,-4.27745605 C56.1277669,-3.98382928 55.6742176,-3.20164585 55.4784669,-3.07910596 C55.442566,-3.05634755 55.1998245,-3.35123286 55.1828511,-3.12186981 C54.9634913,-2.78661094 55.5613164,-2.49058301 55.396969,-2.1582556 C55.0618242,-2.03177677 55.0317177,-1.66901518 54.8861042,-1.38893948 L54.6206208,-1.60483844 C54.3854957,-1.40237676 54.6027188,-1.22197521 54.3683592,-1.01942657 C54.1498324,-0.943260561 53.9403418,-0.808863135 53.6811378,-0.985912159 C53.4682253,-1.51470307 54.1547797,-2.11222024 54.5877443,-2.51961377 C54.3844501,-2.54835846 54.2737612,-2.67640213 54.2737612,-2.67640213 C53.9709771,-2.97351795 53.6230545,-2.14614207 53.4532933,-2.75124765 C53.1006187,-2.77506917 52.8848483,-2.93447182 52.9700776,-3.24330057 C53.0154363,-3.40940916 53.5479446,-4.2211123 53.9907976,-4.78275372 C54.5878424,-5.53768903 55.1456148,-6.09157201 55.4705122,-6.3442182 C55.4418741,-6.59889049 55.6495489,-7.00256894 55.9698729,-6.82669819 C55.9472093,-6.7685368 56.1393663,-6.49175712 56.1393663,-6.49175712 C56.5270466,-6.59425882 56.9094683,-6.36895961 57.2189591,-6.60146282 C57.3791163,-6.800082 57.1665035,-6.98101915 57.3553152,-7.1809736 C58.2800256,-7.80334367 58.3284002,-8.97019483 59.3456507,-9.51248814 C59.0344576,-10.0344351 59.7430313,-10.5224565 60.1631305,-10.526287 C60.2822435,-11.0667951 60.8004844,-11.6265815 60.8223772,-12.162597 C60.9848994,-12.1102348 61.1529694,-12.0212245 61.2987297,-12.0714047 C61.7108588,-12.3752303 61.6024785,-12.9818376 62.2200892,-12.8036216 C61.9349261,-12.9401863 62.4162785,-13.1288005 62.5264435,-13.0477808 C62.6137819,-12.7550126 62.3845627,-12.6179128 62.1419619,-12.5709654 C61.7282485,-11.2122078 61.0120743,-10.7603615 60.6169795,-9.861012 C61.7640909,-10.7851025 62.488319,-11.4521412 62.9917966,-12.669342 C63.3265869,-12.9808941 63.5571907,-13.2202404 63.7977724,-13.3963047 C63.0129774,-14.0056003 64.3103325,-14.7812633 64.4136649,-15.6607904 C64.158948,-15.926315 64.0035329,-15.5770826 63.792301,-15.573183 C63.7768644,-15.7105334 64.0383193,-16.1518887 64.2250385,-16.109843 C64.305148,-16.6413636 65.015107,-16.8492063 65.5421398,-17.6064453 C65.2157398,-17.9613301 65.1083367,-17.6726762 64.932541,-17.8059975 C65.0621012,-17.9459441 65.1786129,-18.0852543 65.040035,-18.2118757 C64.855356,-18.2854702 64.7957098,-18.2964836 64.7260519,-18.3686641 C63.9818141,-18.2551134 63.6828495,-17.3879234 62.992358,-17.3099347 C62.4700882,-17.6623528 62.3473141,-17.5629499 61.8397834,-17.6548592 C61.8662873,-17.8089851 61.7761202,-17.9572969 61.9950286,-18.1209924 C61.5073555,-18.4945514 61.5020428,-17.6215449 61.0790755,-18.0763854 C61.202509,-18.2646987 61.3771192,-18.1371619 61.500048,-18.3258857 C61.1972511,-18.6540772 60.9963029,-18.350979 60.7280798,-18.4598418 C60.8397328,-18.6946923 60.9288728,-18.9285693 61.0758266,-19.1647063 C60.9301913,-19.2338652 60.9252222,-19.3862698 60.4850998,-19.2498235 C60.1691988,-19.7970234 61.0146348,-20.0992948 60.9252222,-19.3862698 C61.591625,-19.4447487 61.7230529,-19.9082909 62.2004263,-20.4225774 C61.9745676,-20.7021264 62.2268134,-20.6491054 62.2898139,-20.9428036 C61.9497716,-21.2600423 61.8098591,-20.6978852 61.5727039,-20.7354202 C61.3960702,-21.0874158 61.9304287,-21.3770026 62.0282057,-21.8464863 C61.9759583,-22.0159147 61.866141,-22.1823491 62.0027142,-22.361048 C62.6475934,-22.8467712 63.0262404,-23.6770128 63.1015616,-24.1331573 C63.1761396,-23.985204 62.9982218,-23.7790684 63.2712989,-23.7974823 C63.6965275,-24.1051165 63.1356891,-24.3641028 63.3055673,-24.6587246 C63.837993,-25.4174697 63.9511742,-26.0822425 64.7597904,-26.7347508 C64.5776133,-27.0280526 64.5314727,-26.4785483 64.3495564,-26.7721736 C65.1747706,-27.6784526 64.9691521,-28.7894102 66.0070197,-29.373854 C66.0607886,-29.7773608 66.2312285,-30.1866817 66.5585114,-30.6039623 C66.5441223,-30.7747397 66.5225823,-30.9459764 66.5330199,-31.1185239 C66.7755763,-31.1467612 66.8988652,-31.517299 66.8996389,-31.7089534 C66.7456669,-31.9118312 66.8802933,-32.1285348 66.8555191,-32.3372161 C65.8941673,-31.8849733 65.4345413,-30.5646245 64.7395661,-29.7131139 C64.9300816,-29.4933724 64.8936974,-29.3767399 64.8133134,-29.2583967 L64.8301868,-29.6886944 C64.7026327,-29.5781817 64.5508647,-29.4562951 64.6411253,-29.2500616 C64.2100633,-28.6584783 63.5038264,-28.284248 63.4668453,-27.5885723 C63.5981183,-26.990664 63.1662637,-27.2261695 63.0154796,-27.1656134 C63.034869,-27.1471673 63.3178633,-26.7001065 63.089227,-26.7108963 C63.0022199,-26.7055965 62.90623,-26.5865544 62.8673586,-26.298943 C62.7232777,-26.3534476 62.6125448,-26.207831 62.475492,-26.2223413 C62.3485299,-25.9415592 62.1858154,-25.6154023 61.8615131,-25.7345202 C61.741876,-25.3685111 61.6413801,-24.9526568 61.3873831,-24.737155 C61.6486675,-24.5782317 61.6893975,-24.4079931 61.6423719,-24.233599 C61.381875,-24.0432007 61.3253378,-24.0249053 61.265749,-24.0235531 C61.3834843,-24.1913268 61.2797492,-24.2906843 61.2337219,-24.3538242 C61.0045344,-24.2665102 61.0205756,-24.0552898 61.1153297,-23.9219941 C60.6818204,-23.4009589 60.0712949,-22.4272104 59.5971782,-22.2434241 C59.3400444,-22.1670534 59.2350752,-22.2213522 59.1573166,-22.1073013 C59.2980109,-21.9532495 59.3895708,-22.0989255 59.5376791,-21.8970669 C59.3465048,-21.7729478 59.5063699,-21.6665075 59.3638057,-21.5446347 C59.140253,-21.3782887 58.8346313,-21.721632 58.6283283,-21.4512757 C58.8135463,-21.2519106 58.9926137,-21.3703428 59.0270582,-21.1270168 C58.8792899,-20.9675986 58.7541262,-20.6714282 58.557569,-20.8173485 C58.275582,-21.3112594 58.447305,-21.6890071 58.8800852,-22.037098 C58.8685309,-22.4642691 58.818136,-22.0639102 58.6625968,-22.3125181 C58.6944195,-22.3519831 58.6074777,-22.6535342 58.6074777,-22.6535342 C58.0100459,-22.4163115 57.7421159,-21.2207288 57.0611399,-21.1462496 C56.9527477,-21.2740324 57.1948903,-21.4199045 56.9396414,-21.5407118 C56.3347023,-21.4092176 56.4416201,-20.4245887 55.6935602,-20.6783602 C55.9041234,-21.0389834 56.5668783,-21.2525418 56.1970569,-21.8489474 C55.8958654,-22.1656568 55.6427819,-22.1824019 55.4064605,-22.0966046 C55.4716276,-22.7484698 56.3406788,-23.3753974 56.874671,-23.3712329 C57.0062115,-23.7302398 56.5463786,-24.0543779 56.8055645,-24.5136468 C56.8900243,-24.6629543 57.1841256,-24.7488969 57.3230486,-24.8828362 C57.7206001,-25.2660035 58.1326966,-26.0299435 58.4106527,-26.3684329 C59.095875,-27.2016301 59.7247794,-28.6676538 60.6343607,-29.3987368 C60.6523178,-29.8169054 60.7223801,-30.0727242 61.107969,-30.395455 C61.1427117,-30.5691257 61.1626139,-30.7420105 61.1973565,-30.9156812 C61.8273024,-31.2035901 62.263165,-32.0944239 62.4108221,-32.6931316 C62.9807445,-32.9366575 63.1545918,-33.6061912 63.6977912,-34.0165989 C63.5175604,-34.5268461 63.8793493,-34.7205683 64.352397,-34.9652121 C63.9987356,-35.3577993 64.8414172,-35.5043061 64.6161627,-35.8374601 C63.2926499,-34.6583316 62.1152587,-33.073822 61.0498619,-31.8251155 C60.9625962,-31.7718213 60.8662264,-31.7725288 60.754507,-31.8682028 C60.7606836,-31.233304 60.2191338,-30.9575994 59.6965304,-30.5561517 C59.654359,-30.3815593 59.8964534,-30.221638 59.7220219,-30.04159 C59.4492396,-30.0256144 59.0819006,-30.0436864 59.0416637,-29.607215 C59.4783202,-29.0335847 58.826606,-28.5839497 58.4718046,-28.4911312 C58.6066926,-28.3257331 58.7725318,-28.1614093 58.6119143,-27.9819107 C58.4717417,-28.1366095 58.3791554,-27.9906969 58.231308,-28.192879 C57.8165566,-27.3271899 57.2779246,-27.233362 56.6739708,-26.3983479 C56.6689074,-26.0189698 56.8170771,-25.8368788 56.640468,-25.5370186 C56.2504602,-24.8750917 55.5161804,-25.1272977 55.0798819,-24.8308084 C54.7358559,-24.5969317 54.864111,-24.1455565 54.3885243,-24.1091867 C54.6485817,-23.5072417 54.5962852,-22.7811723 54.0363975,-22.716949 C53.9921413,-22.6195729 54.0392247,-22.5266512 53.9102752,-22.4247718 C54.1437131,-22.2033323 54.2102348,-22.0153327 54.2796383,-21.9272908 C53.7500539,-21.4094015 53.4764416,-20.7042369 52.8662861,-20.3113229 L52.5528077,-20.4677008 C52.2949236,-20.1851954 52.2956552,-20.1829935 52.6260503,-20.0133941 C52.280091,-19.4040212 52.4059309,-18.8180299 52.1666733,-18.2145442 C52.3109132,-18.1540186 52.498655,-17.8251261 52.6133981,-17.9498064 C52.7826425,-18.0933664 52.9059681,-18.163398 53.0532597,-18.0859292 C53.0421221,-17.9653693 52.81836,-17.5469219 53.127007,-17.6312121 C53.0700261,-17.8880448 53.5237421,-18.011294 53.7289771,-17.8326075 C54.0697394,-18.006472 54.051584,-18.1974518 54.4093353,-18.2669825 C53.9362184,-18.6554844 54.780509,-19.0775923 54.853316,-19.0901551 C54.9498517,-18.8129386 54.6364547,-18.5600452 54.5236926,-18.2720001 C54.7043551,-18.2348799 54.5096826,-17.6058485 54.1757019,-17.5678696 C54.0289989,-17.0605107 54.252467,-15.9944898 53.3357186,-15.9799881 C53.4471285,-15.8331473 53.1080735,-15.5266702 52.9808476,-15.6756608 C52.7427529,-15.7980505 52.8682244,-15.9381084 52.6298688,-16.0601747 C52.4325086,-15.9169838 52.7202398,-15.7970769 52.5226186,-15.6535625 C52.2943297,-15.877242 52.1544061,-15.5534397 51.9130198,-15.8531147 C51.7633002,-15.8270431 51.6656598,-15.9557231 51.2694133,-15.191748 C51.018794,-15.2664774 51.3351288,-16.2443382 51.6656598,-15.9557231 C52.2658672,-16.3819008 53.1777226,-16.7447782 52.8678822,-17.4466608 C52.3519144,-17.0285691 51.9500515,-16.6794377 51.470431,-16.8059598 C51.134841,-16.6198548 50.9658235,-16.4745034 50.7900728,-16.3715847 C51.3577624,-15.3603883 49.7810803,-14.702618 49.4877244,-14.0734976 C49.3115853,-14.1535373 49.1254854,-14.1704414 49.1254854,-14.1704414 C48.6488065,-13.1098049 47.8960937,-12.3245301 47.2755205,-11.3300298 C47.1364935,-11.2374169 46.9802507,-11.2509292 46.8351543,-11.1943174 C46.8948439,-10.6123098 46.4298547,-10.3600413 46.006675,-9.893272 C45.0632419,-8.85282028 44.5151628,-7.40515771 43.4873513,-6.90573191 C42.8718646,-6.40360434 42.7433112,-5.4658533 41.9236555,-5.51165099 C41.9753092,-5.30521283 42.0123783,-5.44860435 42.189139,-5.29575203 C42.0270666,-5.1849233 41.8020598,-4.70482198 41.479414,-4.6881549 C41.28124,-4.23925758 41.2892845,-3.80047928 41.1752822,-3.35543824 C40.7302962,-3.66482433 40.7663379,-3.21827495 40.3366908,-3.54357433 C39.486804,-1.88019154 38.2613891,-0.855883555 37.0185154,0.571465645 C37.0137634,0.819872915 37.0937049,1.06377694 36.9661404,1.31835999 C36.4281866,1.24241596 36.3219442,1.85712822 35.9786624,1.99680732 C35.7378048,2.09444842 35.5611246,1.84096704 35.3578033,2.08482518 C35.1542826,2.30923927 35.2864969,2.78472308 34.8770708,2.6810062 C35.497411,2.89625642 34.766013,3.64369736 34.2814594,3.28285178 C34.067208,2.37536792 35.5967014,2.04557882 34.9818377,1.18616009 C34.5813742,1.3843166 34.6005059,1.96065739 34.1572337,1.79942179 C33.7438874,2.14724863 33.1248271,2.50560494 32.8220258,3.18167613 C32.6321402,2.97048103 32.9423983,2.53078562 33.1700165,2.47754564 C33.1587511,2.28734855 33.0124073,2.10299313 33.0784065,1.90921446 C33.5936235,1.44230734 34.1643534,1.00501234 34.0991266,0.369761307 C33.8124618,0.135565844 33.923708,0.0535685282 33.8635316,-0.0200067003 C33.2162878,0.469685252 32.9952383,1.05369927 32.8604134,1.63338399 C32.5166344,1.32596118 32.4747802,1.00269537 32.1888321,0.691955043 C31.7648819,0.808345321 31.5342611,1.04874905 31.2243622,0.79673011 C31.4546801,0.750506028 31.2105349,0.511253647 31.2654939,0.336348414 C31.3078202,0.19991022 31.464939,0.270373732 31.5241141,0.151386734 C31.6768148,-0.15613316 31.773576,-0.641975664 32.2272196,-0.856337097 C32.3752421,-1.1590917 31.9100798,-1.58129533 32.1101181,-1.93922994 C32.3044179,-2.29004789 32.8607319,-2.49804242 33.3699429,-2.00091767 C33.8394276,-2.40592798 33.2041386,-2.7570607 33.1862181,-3.13799048 C33.526908,-3.5304423 33.95387,-3.38836229 34.3061771,-3.70816484 C33.9755438,-4.24538556 34.5944027,-4.54338182 34.8576688,-4.93827312 C34.9205424,-5.03282803 34.8821536,-5.22151591 34.9651629,-5.34415136 C35.0589176,-5.48322192 35.2547512,-5.53124483 35.2725436,-5.58854713 C35.4196729,-6.07467064 35.189208,-6.38581712 35.0038113,-6.89276699 C34.8972308,-6.71913559 34.7411128,-6.85198702 34.5935773,-6.93018975 C34.1433703,-6.10136837 33.9257696,-5.25424392 33.2542333,-4.85982818 C32.8766582,-4.63823759 32.653788,-4.67379669 32.3931384,-4.47388155 C31.7070599,-3.39607192 31.651605,-1.93128859 30.398423,-1.45499372 C30.3813392,-1.28249496 30.3959721,-1.1109836 30.3095571,-0.935414456 C29.670426,-0.983303485 29.6575823,-0.35798085 29.4256979,0.0249383744 C29.3466755,0.154029728 29.1600795,0.199924005 29.0705831,0.328531712 C28.8738359,0.608801461 28.9202966,1.09113987 28.7294556,1.43352285 C28.4564855,1.92335941 27.7358769,2.38070499 27.5867324,2.57810342 C27.4167035,2.80243799 27.4072566,3.18414304 27.257109,3.39625842 C26.8247153,4.00711188 26.0548899,4.34516277 25.8626459,5.12560389 C25.6315204,5.36559716 25.3127952,5.05819559 25.0791736,5.27848389 C24.8307015,5.77110351 24.7320343,6.48731453 24.1723062,6.81250899 C24.3372864,6.91882411 24.410927,7.02959368 24.3423043,7.14786052 C23.9645579,7.58730449 24.0213803,8.09306636 23.4356978,8.68156213 C23.2281474,8.71095126 23.0162856,8.70630455 22.8329622,8.88287056 C22.5858877,9.43179447 21.9555792,9.72637134 21.7269906,10.2544427 C21.5451245,10.6748247 21.8913764,11.1149471 21.5671046,11.4082727 C21.3478631,11.4811795 21.0844389,11.2803454 20.8612549,11.3280861 C20.8055244,11.7423167 20.3164671,11.7259543 20.103535,11.9952043 C19.8123332,12.362557 19.8776846,12.7509938 19.744284,12.9869049 C19.4377904,13.5266068 18.8403672,13.8270382 18.6561752,14.4720911 C18.7993255,14.7598999 18.8740154,14.6299633 18.9704192,14.628556 C19.1133529,14.7705031 18.796991,14.9213621 18.7299225,14.9268082 C18.6632993,14.8726282 18.4639344,14.7104988 18.4639344,14.7104988 C18.0133463,14.7821952 18.0265507,15.3296133 17.8090677,15.6594355 C17.1516627,16.6550484 15.885518,17.6365927 16.1104727,18.7214976 C16.3104223,18.5284583 16.5768473,18.7494079 16.7793268,18.5739587 C16.4483155,18.8093139 16.9222756,18.7946526 16.834446,18.9149748 C16.7044951,18.824292 16.6305371,19.0839055 16.5092026,19.0457565 C16.4195599,19.1994189 16.2392244,19.3650246 16.2478878,19.5739944 C15.9855411,19.4972266 15.8104542,19.6065768 15.5817453,19.3771997 C15.5143565,19.3229328 15.3157572,19.1608903 15.3157572,19.1608903 C15.0817219,19.2635438 15.1451643,19.4522529 14.8827589,19.6978737 C13.5814005,19.6234838 12.4913812,21.2436966 11.9463379,22.2471304 C11.9832935,22.588908 11.8533665,22.7676558 11.9424627,22.9349142 C12.1894597,22.9167155 12.2568716,22.8579878 12.3521919,22.9719265 C12.4064245,23.2725866 12.1259035,23.0857004 11.9975818,23.2759303 C12.0720325,23.3680767 12.0556653,23.4640306 12.215575,23.5517607 C12.3878312,23.666671 12.484201,23.6673785 12.5956766,23.7623186 C12.4759096,23.8973748 12.7519499,24.1882744 12.5910358,24.4500154 C12.4631913,24.6583084 12.0769362,24.7994617 11.8445591,24.8306209 C11.7472855,24.6631398 11.7943112,24.4887457 11.590075,24.3274754 C11.2735833,24.2473814 10.7139548,24.5185604 10.6667539,23.9708113 C10.4347249,24.171506 10.1076131,24.2434582 10.1857606,24.5673158 C10.3521864,24.2966668 10.3150012,24.7500814 10.5477387,24.6645831 C10.3385444,25.5613927 9.44954872,26.4275861 8.78716136,26.9847685 C8.85834109,27.7110936 8.62186305,27.966016 8.00617236,28.2258825 C7.81203806,28.5982593 7.94361176,28.954317 7.55093144,29.3366251 C7.15508856,29.3901757 6.76325591,29.4646626 6.33859695,29.3383814 C5.9281029,29.6837073 5.76465506,30.2149415 5.44349447,30.5852468 C5.10696115,30.9735803 4.36839847,31.1795861 4.59638698,31.7725913 C4.70528755,31.6137012 4.84884672,31.6688528 4.98825355,31.6959895 C4.98815645,31.9251511 5.03155437,32.1521915 4.86873369,32.3893509 C4.25695489,32.2619399 3.27611983,32.3828648 3.34616966,33.3230501 C3.19447595,33.4562448 3.00228111,33.3411882 2.85780838,33.5182835 C1.99839656,34.6120667 1.3328464,35.8126211 0.346113515,36.9067712 C0.265438987,36.9954196 0.0847787447,37.0059703 -0.0276295528,37.0966635 C-0.294658109,37.3117442 -0.386264163,37.6834095 -0.634240409,37.9857557 C-0.696286959,38.06063 -0.86421903,38.0108313 -0.911227933,38.0566928 C-1.24547317,38.3820784 -1.58108163,38.903995 -1.87321447,39.2497018 C-2.46238528,39.9440894 -3.04479483,40.918207 -3.63429655,41.5694768 C-4.03926817,42.0167745 -4.59025078,42.2430305 -4.23404413,42.8594296 C-3.83019159,42.7368719 -3.63957902,42.7274518 -3.41331537,42.9339516 C-3.5713364,43.4615649 -4.28957181,43.9781505 -4.75978351,44.603776 C-4.89254219,44.496884 -4.97578039,44.6975322 -5.12176164,44.5065087 C-5.07704525,44.4282532 -5.42311199,44.3112533 -5.42311199,44.3112533 C-6.7020896,44.9293955 -7.43221605,46.3147092 -8.58305172,47.0247412 C-8.58234638,47.681971 -9.61692799,47.7109829 -9.78527405,48.5156789 C-9.28810928,48.6162979 -8.97388744,48.296053 -8.57267873,48.5135992 C-9.35476124,50.1416046 -10.5979813,51.1921392 -11.5844998,52.38448 C-12.3063991,53.2569439 -12.958634,54.2171262 -13.8145663,55.0143337 C-13.8830725,55.0775276 -14.0664896,55.0686969 -14.1400536,55.1443815 C-14.643558,55.6620555 -14.8962031,56.414801 -15.4865217,56.8142059 C-15.4343323,57.6884482 -16.3222615,58.440353 -17,59.2373232 C-16.6751866,59.3723893 -16.062759,59.4274851 -16.0396662,59.8206553 C-15.8005186,59.4152556 -14.952437,58.5656011 -14.7200816,59.4122869 C-14.5814369,59.0247784 -14.0531965,58.7500336 -13.7397276,58.3333024 C-13.4416537,58.5574943 -13.3483235,58.1899092 -13.1377576,58.131907 C-12.2207446,57.8299985 -12.2627395,57.1649 -11.658043,56.5704426 C-11.5097297,56.4248578 -11.0596296,56.2242185 -10.9776848,56.1360675 C-10.9667634,56.124596 -10.9740176,55.3656309 -10.5929424,55.6589286 C-10.3895603,57.212087 -12.388482,57.5768268 -12.8462779,58.8627781 C-12.1096444,59.0001356 -12.181144,58.4690475 -11.5269541,58.4547332 C-11.2659623,58.6637658 -11.7566416,58.7644538 -11.634709,58.8609349 C-11.2111827,58.8984553 -10.8981384,58.2532095 -10.4662565,58.3435872 L-10.7571759,58.932376 C-10.5740348,58.7353085 -10.4190733,58.5099684 -10.4089243,58.227922 C-10.2259585,58.4083161 -10.1561017,58.2449905 -10.0746277,58.1543143 C-10.2881737,57.9040603 -10.3433897,57.9196808 -10.388367,57.9982599 C-10.4243042,57.8479871 -10.3556456,57.6478013 -10.2144935,57.6458276 C-10.1499676,57.7191908 -10.0318626,57.9427121 -10.0318626,57.9427121 C-9.38801936,57.983721 -9.58098224,56.5938267 -8.70953132,56.5981909 C-8.61156842,56.8342549 -8.75051454,57.0811889 -8.38868491,57.1558399 C-8.28203454,57.9977794 -9.70785459,58.3192184 -9.59528721,59.3341509 C-10.1149311,59.2323908 -11.3018066,60.5156739 -10.9900112,61.0638199 C-10.6222375,61.0388611 -10.5926908,60.7109944 -10.3461439,60.4021298 C-10.0888066,60.31307 -10.0350893,60.629915 -9.85142405,60.6073465 C-9.84038484,60.0785728 -9.91835924,60.4291873 -10.0872799,60.217902 C-9.86539449,59.8048913 -9.55046977,59.9667303 -9.25555173,60.0051775 C-8.93629964,59.6900946 -8.64199499,59.4639879 -8.60094588,59.0565642 C-7.9732176,59.1299947 -7.57456521,57.7857695 -6.89687959,58.1713804 C-6.52532944,58.9946832 -7.58405655,59.2857894 -8.1216054,60.2364009 C-8.27685945,60.5118502 -8.28689585,60.898432 -8.43286135,61.1685804 C-8.71665535,61.695677 -9.1832814,62.1137243 -9.47220964,62.5943325 C-9.52327057,62.940589 -9.46200998,63.2812434 -9.76534209,63.6398026 C-9.74389548,63.7531176 -9.7255281,63.8671421 -9.70996213,63.9804952 C-10.0147467,64.4455306 -10.1332384,64.9313763 -9.73710643,65.2422747 C-8.80952621,65.9709011 -7.24488473,63.450133 -6.28021328,63.412473 C-5.60144916,62.2328411 -5.0147845,61.790294 -4.12776935,61.0156859 C-4.08082142,61.244542 -4.08760332,61.2529526 -4.16864022,61.4757441 C-3.87283737,61.7618264 -3.89832568,61.804836 -3.58892978,61.8491653 C-3.93575445,62.3849917 -4.40171204,63.0322875 -5.09827197,63.5841754 C-5.0900022,64.2320242 -5.73094099,64.8227175 -6.3119984,65.3619493 C-6.28835664,65.6093447 -6.34759931,65.8600365 -6.13487611,66.0978379 C-5.79020332,65.8714502 -5.09712458,64.7238125 -5.00341309,65.2408274 C-4.72548398,65.1749409 -4.53061632,64.5974867 -4.20894141,64.8007008 C-4.33563335,64.4271888 -3.63581622,63.799751 -3.34346653,63.7273809 C-2.51517999,63.649509 -1.59996708,62.4398867 -1.19489786,62.0183775 C-1.0315191,61.9536024 -0.864180741,62.0404108 -0.864180741,62.0404108 C-0.557080791,62.4669045 -0.714842721,62.1018688 -0.289944063,62.2610171 C-0.902613789,63.0975128 -1.59915724,63.3933931 -1.46641404,64.266193 C-1.19934614,64.6542397 -1.2609514,64.8290961 -1.2895526,65.0024052 C-0.481664114,65.2876915 -0.206782277,64.2005991 0.226148149,63.6678453 C0.584999352,63.226961 1.09368961,63.1350284 1.17687447,62.7624064 C0.895573581,62.8791118 1.1001819,62.5072186 1.23612968,62.4153153 C2.09756014,61.1956988 2.73956885,60.0761586 3.56295175,59.6665064 C4.21302936,58.4105205 5.27789277,57.6412855 6.02689551,56.3382737 C6.57999682,56.187119 6.72316999,55.1348535 7.40985454,54.8957643 C7.59747221,54.6268165 7.90053586,54.7152723 8.19332685,54.7428843 C8.4119474,54.8521151 8.7428634,54.6386423 8.6150649,54.4934709 C8.49066769,54.2000239 8.42465122,54.267385 8.33070938,54.163137 C8.78803927,54.1970821 8.32077745,53.7463907 8.56408188,53.4643476 C9.50291738,52.4555072 10.5407028,51.079367 11.4385204,50.1732142 L11.1536432,49.8435272 C11.0283747,49.715946 11.3470164,49.5664054 11.2613982,49.4373255 C11.2807199,49.5874763 11.5128642,49.793938 11.6414998,49.6478834 C11.5355985,49.0620384 12.1904374,49.102884 12.1638856,48.5906737 C12.3421833,48.5042877 12.5165385,48.3927356 12.6811089,48.2218078 C12.6632138,47.7755543 13.1375449,47.6899587 13.4025988,47.327051 C14.1140843,45.7969606 15.3633381,44.9918211 15.9627934,43.8794527 C16.6504729,43.8173879 16.8807406,43.0571566 17.3641198,42.5509679 C18.0648677,41.8177008 19.0639544,41.1486939 19.3544553,40.2194533 C19.1753618,40.020784 19.5383988,39.3508495 19.7803294,39.2819327 C19.8469526,39.3361127 20.0463176,39.4982422 20.0463176,39.4982422 C20.1141934,39.1715518 20.4779204,38.9526254 20.7746708,39.004346 C19.8790146,40.1741692 18.883538,41.1599786 17.9852228,42.463684 L18.3839527,42.7879428 C19.1951859,42.1954085 19.7236281,42.1152539 19.5563035,41.4698167 C19.9780605,41.1395418 20.0467272,40.7476147 20.4774022,40.7379234 C19.9234606,41.7223374 19.1933996,42.9282754 18.3795727,43.4753161 C18.0791698,44.1453037 17.607887,44.6624008 17.3105968,45.0746138 C16.9759678,45.439858 16.4066311,45.8381153 16.4336178,46.4347699 C16.9592306,46.1166464 17.3007652,46.0858818 17.6018326,45.804751 C17.7887388,46.0901152 17.2902,46.0751474 17.5790682,46.3791572 C18.1943948,46.4607129 18.7013617,45.6475207 18.7217915,45.2345766 C18.2563755,45.2106595 18.0214436,45.5445025 17.7460784,45.6258643 C17.751262,44.90433 18.3305029,44.8129967 18.7371708,44.2599567 C19.3338274,43.449538 19.9263973,42.5592039 20.6126272,41.9341068 L20.8695621,42.0932422 C21.1802725,41.9918837 21.2456992,41.8019243 21.3664719,41.9547723 C21.3407279,41.3762679 22.1268283,41.5217167 22.2322077,40.8811289 C21.7049846,40.8374782 22.0879734,40.4537159 21.6044853,40.5682861 C21.7895304,40.2206542 21.8552438,40.2199978 22.1334735,39.9122606 C22.3522554,40.0751834 22.5350001,40.0143738 22.7611959,40.2251034 C23.0796891,40.0529464 23.3766292,39.551002 23.3499441,39.2223971 C22.7674967,39.2586332 22.7532757,39.4120357 22.4880836,39.6082568 C22.7326281,39.0417428 23.0963989,38.4216811 23.594316,38.2363611 C23.5871874,37.740482 24.2747091,37.2101669 24.6155408,36.6973184 C24.8479543,36.8391904 24.8071316,36.9934552 24.9182807,37.1406195 C25.6025559,36.7967341 26.0003847,36.1572358 26.4459902,35.5196339 C26.0732687,35.3589976 25.8765977,35.5707714 25.6438897,35.5588129 C25.3850257,35.7430406 25.3189072,35.6892711 25.252284,35.6350912 C24.5621949,35.4648847 24.4789405,36.0490156 24.3130618,36.253694 C23.9883639,36.6532593 23.5158024,37.2341252 23.140467,37.5710862 C22.9814528,37.7143959 22.7506031,38.0328123 22.4897364,37.8319156 L22.8264839,37.4142978 C22.6446866,37.2407457 22.5138052,37.3833671 22.3315032,37.2094045 C22.3585118,37.055689 22.26784,36.9069668 22.4872531,36.7436817 C22.6406601,36.5036873 22.8327451,36.8168298 23.0116006,36.7753529 C23.4760578,36.6678018 23.847972,36.0500777 24.1548285,35.6311828 C24.4258818,35.260835 24.8485993,34.8547492 24.9243134,34.676905 C25.0984305,34.1977317 25.6387714,33.9017621 25.874535,33.7710556 C25.8755541,33.245381 26.2711147,33.0978694 26.58864,32.4760852 C26.1983085,32.3932527 26.8766628,32.0359825 26.9665191,31.5980857 C27.3249008,31.7920514 27.5465312,31.1399519 27.875609,31.152618 C28.0665225,31.0288223 27.9069182,30.9220586 28.0497263,30.8009197 C28.3563213,31.0995278 28.4556007,31.1101 28.5998261,31.3468291 C28.9819992,31.3485774 28.6494744,30.8655217 28.9848294,30.8693667 C29.2480223,30.9730676 29.1394098,30.9865064 29.3835593,31.1936256 C29.6311461,31.2980254 29.7769004,31.4872574 29.8604164,31.2852283 C29.6373038,30.9141811 29.7124178,30.7578089 29.8642917,30.5974446 C29.5434394,30.2792079 29.4563038,30.6909301 29.2919493,30.6252944 C29.1769682,30.5098285 29.0905593,30.5734604 28.9777053,30.4688296 C28.5310994,30.3241648 28.4118463,30.7777904 28.1756047,30.5080086 C28.5225607,29.8683808 28.838943,29.3019061 29.1118389,28.8007614 C28.8730674,28.5133894 28.8070509,28.5807504 28.7131091,28.4765025 C28.6675499,28.1132667 28.7442676,28.1756558 28.5735041,27.9676924 C28.7906985,27.5283713 29.113315,27.736636 29.4049714,27.7552913 C29.4441287,27.2745577 29.3900938,27.2006208 29.3608516,27.1270286 C29.5026328,26.7511761 29.4349001,26.4952406 29.805354,26.303209 C29.5482697,25.611557 30.3221527,24.6062239 31.0739387,24.8667747 C31.153048,24.6525922 31.0563851,24.4470438 31.2593163,24.2275064 C31.4846634,24.2361569 31.5641633,24.2526038 31.7063019,24.4919207 L31.9465377,24.193992 C31.7613198,23.9946268 31.6052598,24.2565662 31.5659314,23.9830236 C32.1109842,23.5526989 32.1315017,22.4649592 32.8051493,22.7198114 C32.6135185,22.5377267 32.8954617,22.3331683 32.5989211,22.1568213 C32.8122862,22.0518196 32.8162834,21.9142052 32.8687845,21.685347 C33.1402533,21.2253548 33.7271835,21.0053012 34.0485034,20.768492 C34.3225181,20.9147368 34.5885803,21.0148793 34.8018433,20.7887471 C35.2418438,21.2017361 34.513011,21.502423 34.2618557,21.7320192 C34.1161766,22.0639956 34.0825752,22.389636 34.0169791,22.7176447 C33.7572984,22.7774827 33.4988031,22.8431052 33.2335068,22.8705247 C33.2551572,23.0986257 33.5124463,23.3153594 33.2296315,23.5583085 C33.4314244,23.6168975 33.6308973,23.6607452 33.8206022,23.6441597 C33.9158399,23.8110564 33.8810972,23.9847271 33.7314755,24.1640624 C34.0413739,24.1611312 34.2538805,24.253071 34.3775653,24.5909297 C34.9316163,24.2530844 35.5328461,23.9862783 35.6535349,23.5547091 C35.7373902,23.3315315 35.4424643,23.6123007 35.339291,23.3982442 C35.469112,23.2579741 35.3837546,23.1285708 35.4473067,22.991719 C35.7476476,23.1861535 35.9426852,22.7256001 36.2491464,22.9528635 C36.1724128,23.4014321 35.7265148,24.0891433 35.3239116,24.3728641 C35.5550548,24.5142386 35.535458,24.6680898 35.5122772,24.8222401 C35.0000679,25.5797506 34.611815,25.6860716 34.4241683,26.3074263 C34.4232041,26.6703205 33.9003967,26.8295071 34.2387908,26.9466947 C34.8349667,26.5327712 35.5785783,26.1235908 36.1468628,25.5359435 C36.5547504,25.1140483 36.737918,24.3894279 37.3860808,24.2727313 C37.3857799,24.3871068 37.3448023,24.5032175 37.2117026,24.6247531 C37.4504742,24.912125 37.5169954,24.8451745 37.6104325,24.949012 C37.5587946,25.2037457 37.3583319,25.4606408 37.0932092,25.3178779 C36.7252863,26.0373999 36.4786241,25.9391081 36.2825926,26.7325374 C36.4556825,26.97078 36.5121579,26.8447771 36.5968366,26.8890023 C36.5151868,27.10219 36.3782757,26.9672831 36.2897167,27.1330745 C36.5441538,27.4797842 36.0182162,27.6428526 35.8682225,27.3832219 C35.3560265,27.3271536 35.4829195,27.5128305 35.4651127,27.7463362 C35.7567479,27.798182 36.054226,28.0117127 36.1112025,28.1732035 C35.8524464,28.2391495 35.5739105,28.1834951 35.3463584,28.4397846 C35.435459,28.7023849 35.5124673,28.7944688 35.5342192,28.8887501 C35.3596311,29.2379231 35.0752926,28.9065318 34.865626,29.0359656 C34.7228392,29.251389 34.6526977,29.1456074 34.5768735,29.3940624 C34.4116054,29.5606736 34.2552266,29.4281456 34.1186445,29.4161607 C33.4909421,29.5323566 33.8365498,30.2676113 33.5120337,30.3052528 C33.2507798,30.558773 32.7218557,30.3980475 32.7055532,31.0318051 C33.0552314,31.1308532 33.0105745,31.2691453 33.1709063,31.410244 C33.0861536,31.4821857 32.9802598,31.4217789 32.8939187,31.4811811 C32.2554377,31.9983523 31.9351137,32.9220862 31.3659483,33.1024902 C31.3124238,33.761681 30.9242845,33.3828328 30.6672227,33.4228407 C30.7567748,33.5138777 30.6122192,33.6164561 30.5416051,33.7154284 C30.544216,33.8873396 30.7983325,34.0468611 30.6817149,34.224649 C30.1350564,34.5160165 29.5963568,34.7415492 29.2245038,35.2120307 C29.3146815,35.3437472 29.6414412,35.2618679 29.5571151,35.4825201 C29.3307077,35.4762209 29.0790196,35.4681092 28.9178886,35.4565134 C28.4469305,36.1286655 28.3522952,37.0875725 27.7595422,37.57498 C27.7392724,37.4042407 27.4511255,37.2465031 27.6196763,37.0664933 C27.3524585,36.9905846 26.864716,36.9560094 26.7259658,36.5373411 C26.1357954,36.8318873 26.3677346,37.3857923 26.1078508,37.7132694 C26.2228319,37.8287354 26.3084752,37.7650165 26.4220948,37.8697343 C26.7537026,37.8999905 26.8595965,37.9603973 26.9464423,37.9014055 C27.142639,38.1016647 27.1947804,38.3095708 27.2195545,38.5182521 C26.6102949,38.2975514 26.5081942,38.9568738 26.1840815,39.2562205 C26.4924362,39.3495147 25.7327158,39.6791794 25.7327158,39.6791794 C26.0476848,39.6948332 25.6384586,39.8655105 25.8062023,40.13422 C25.4906271,40.2519754 25.6854421,39.8849726 25.3112216,39.9293267 C25.1916344,39.7822632 25.0934893,39.6531728 24.7567419,40.0707906 C24.4692926,39.9173697 24.9301676,39.6028385 25.0934893,39.6531728 C25.409893,39.1809826 25.9888881,39.1687194 26.1583291,38.7419823 C25.8100886,38.5851865 25.6526156,38.4571247 25.6268576,38.3097739 C25.5283037,38.4133408 25.4222679,38.4733306 25.3016312,38.4394982 C25.2224209,39.0424505 24.3713371,39.1071391 24.1221562,39.3570872 C24.2499955,39.7706317 24.0923958,39.9691883 24.2505179,40.15241 C24.6637972,40.191238 24.5408492,40.3333483 24.6497525,40.4770793 C24.8893127,40.6515436 25.0002843,40.0288938 25.2517225,40.2756839 L24.6267443,41.0507516 C24.3794746,41.5480983 24.3266893,41.7627995 24.0086293,42.2266799 C23.708495,42.4496525 23.8597607,42.5025015 23.6537584,42.5310072 C23.4955694,42.8619155 23.374456,43.0649702 23.2210209,43.0676671 C23.1903006,42.9109247 23.2585031,42.6594852 23.4428894,42.6557139 C23.2827715,42.3578558 23.3209921,42.2223636 23.4653928,42.0816311 C23.5320161,42.1358111 23.7242569,41.8974034 23.7242569,41.8974034 C23.9604593,41.6915329 24.1489566,41.1924531 24.4156144,41.1757818 C24.537754,40.8450155 24.4906706,40.7520938 24.6196202,40.6502144 C24.380026,40.477865 24.2081437,40.7221166 23.9990219,40.7379088 C22.9215648,40.9216585 23.1839147,42.6556022 22.0201906,42.7825872 C21.8715308,43.650962 20.9239066,44.3152217 20.3257317,45.1565421 C20.0960845,45.4796857 19.988454,45.5115981 19.7781152,45.6988667 C19.5716721,45.8823404 19.4957631,46.1360824 19.2973828,46.2950477 C19.0723223,46.4757001 18.7110589,46.3816921 18.7319036,46.7237581 C18.8194132,46.6711979 18.915783,46.6719054 19.0272585,46.7668455 C17.8026542,48.0274805 16.9745924,50.2586821 15.2398548,51.1912303 C15.2955313,51.3222055 15.3783312,51.4516714 15.2467181,51.592091 C15.0203974,51.5007006 14.8517089,51.7689739 14.6628716,51.9067769 C14.2269605,51.8763244 13.9527193,51.9832384 13.8794018,52.234803 C14.0368714,52.7774231 14.0202967,53.0456742 13.852255,53.3214364 C13.3073669,53.3908949 13.1080349,53.816355 12.6725361,54.2382915 C12.4879084,54.4164749 12.2243852,54.5246064 12.107057,54.667002 C11.9073875,54.9063313 11.8651782,55.2426467 11.6628155,55.4904981 C11.3235613,55.9050062 10.6849163,56.0658642 10.5200922,56.6350786 C10.3806854,56.6079419 10.2371262,56.5527903 10.1284865,56.7113569 C9.22400867,58.0486145 8.22078395,58.385928 7.54280039,59.6443935 C7.85454854,59.9086285 8.00430204,59.880442 8.17076666,59.9579702 C8.19580456,59.4968196 8.5953902,59.3215159 8.7957449,59.1829026 C8.83809797,58.6463865 9.28214554,58.4086886 9.5172348,58.2881458 C9.5833533,58.3419153 9.67791885,58.5666468 9.67791885,58.5666468 C10.1875913,58.6206629 10.7421581,57.4219782 11.0655512,57.8686848 C10.9572574,58.1491158 10.7635651,57.9042953 10.6443178,58.1185086 C10.6186855,58.2342438 10.8924033,58.335256 10.8140552,58.4541836 C10.8544353,58.662166 10.8101792,58.7595422 10.9355536,58.8486458 C11.4826061,58.3733493 11.572002,57.7888568 12.3075133,57.693383 C11.7862876,58.8217009 10.5378846,59.8765903 10.0061827,60.9567536 C9.50066044,61.9826861 8.53970742,62.4738169 7.91985728,63.4073102 C8.20211968,63.7246942 8.27651457,63.4697208 8.41534268,63.612614 C8.65580539,63.3164766 8.79769723,63.1249634 8.99868449,63.2975176 C9.65623288,62.9463585 9.57601144,62.6561644 10.1122849,62.326893 C11.0185047,60.4029538 13.0796194,58.9661554 14.4769326,57.186638 C14.8859101,56.6649347 15.3150931,56.031117 15.8713958,55.4572926 C16.1929551,55.1258753 16.6084077,54.9495492 16.8402456,54.6651442 C16.9429836,54.5398064 16.9532388,54.3467573 17.062114,54.2531909 C17.3047357,54.0455779 17.6263807,54.0912988 17.6462214,53.9381815 C17.7275911,52.5790991 19.4129933,51.6621331 20.0621702,50.6694698 C20.3051245,50.2976955 20.4182531,49.8433741 20.6136619,49.4393616 C20.9247352,49.4588102 21.1734854,49.0922847 21.4931242,49.1674394 C21.4404554,48.2274631 22.3315981,47.8011435 22.8993523,47.1509344 C23.213697,46.7911544 23.3623469,46.3218001 23.6803413,45.9098204 C23.9168849,45.6029974 24.3010575,45.4322989 24.534312,45.1233366 C24.5768802,45.0674365 24.5704435,44.8152863 24.594072,44.776656 C24.8609029,44.334852 25.3504602,44.1288079 25.6405444,43.751441 C25.7611723,43.5945894 25.7770726,43.336502 25.8925451,43.1663526 C26.0360635,42.953131 26.303476,42.8256668 26.4396569,42.6236176 C26.5601193,42.4452072 26.5571648,42.1991025 26.6913968,42.0388527 C26.9994749,41.6712986 27.3912584,41.3927048 27.5754999,41.0792338 C27.974478,40.399964 28.6551052,39.7735241 29.0958414,39.0569772 C29.9143047,37.7268977 30.9269033,36.5343417 31.9623903,35.3652197 C31.9678004,34.3905266 33.0711974,34.1196791 33.5493551,33.397143 C33.5902161,33.3361053 33.5770781,33.1192117 33.609115,33.0504623 C34.1186325,31.9667195 35.0407154,31.3009707 35.610189,30.4320247 C35.760608,30.2029905 35.7766905,29.8379296 35.9400732,29.6135462 C36.1952151,29.2629309 36.7111155,29.1040189 36.9382898,28.6481758 C36.9752657,28.5743376 36.9436758,28.3761817 36.9977889,28.3018186 C37.4251651,27.7168788 38.1730542,27.3438492 38.0489021,26.5889068 C38.8235395,26.3174354 39.2350061,25.544949 39.738981,24.9023252 C40.4209522,24.0327408 41.1230827,23.2770314 41.9215573,22.332403 C41.7299411,22.1015899 41.6449616,22.1717402 41.5409509,22.1214346 C42.8101111,20.0116726 44.9548178,18.1768741 45.9214828,16.0069703 C46.8079286,15.7937526 46.8938061,15.1576585 47.5997967,14.6075483 C47.7816557,13.7892033 48.6413148,13.3812003 49.1387665,12.6989926 C49.1986181,12.6175129 49.1568044,12.4351451 49.1985264,12.352312 C49.3962892,11.9609259 49.7580524,11.7050523 50.0823687,11.3930166 C49.9003251,11.0435844 50.8103231,10.8602324 50.7852304,10.3845588 C50.9193904,10.2606719 51.1053569,10.4611814 51.2250919,10.248436 C51.1793543,9.70509058 52.1116569,9.18316185 52.0837035,8.77425544 C52.0496662,8.50555135 52.8767709,8.13481163 52.7383094,7.82564221 C53.0025663,7.63990842 53.3126916,7.63876858 53.5332858,7.38592607 C53.6950314,7.19984642 53.6798553,6.93469749 53.8332815,6.74131664 C54.1445682,6.34905569 54.6634756,6.09832196 54.994633,5.71043709 C55.0769574,5.61456068 55.0410624,5.39790679 55.1018832,5.3038249 C55.1812746,5.18360338 55.3289861,5.26676974 55.4273704,5.17377713 C55.8806468,4.7432667 55.8937641,4.14869628 56.3224729,3.92691165 C56.1575987,3.78211887 56.0328963,3.63518053 56.0199939,3.48328716 C56.2529457,3.49597964 56.4542568,3.3136885 56.6704636,3.22278116 C56.6152029,3.12963673 56.4212094,2.8717167 56.4212094,2.8717167 C55.5786004,3.23681081 54.9011936,4.45932397 54.329915,5.16986878 C54.0142788,5.56234184 53.5963413,5.95731783 53.3679284,6.36287777 C53.2351698,6.25598572 53.1519316,6.4566339 53.0059503,6.26561047 C54.6198836,4.25787042 56.3931208,1.62661516 58.1332028,-0.2287255 C58.1475928,-0.647652449 58.0860795,-1.17972472 58.5700763,-1.45349268 C58.4229108,-2.11252996 59.0736829,-2.82216575 59.7243036,-2.88490939 C60.1052517,-3.61954813 60.5681969,-3.68065968 60.974521,-4.4353682 C60.4771998,-5.33899175 61.42847,-5.7683679 61.9705151,-6.48929605 C62.2833639,-7.31359409 63.1113352,-8.07301658 63.8645997,-8.701445 C63.7746829,-8.833485 63.4474014,-8.75095865 63.5319883,-8.97193438 C64.9872516,-10.507221 65.584881,-11.6173251 66.8800352,-13.259786 C67.0426425,-13.0852358 67.1213146,-13.4315336 67.2719018,-13.3363877 C68.2605872,-13.6598159 68.5930746,-14.9592963 69.3280949,-15.6138093 C68.9227358,-15.9391744 69.2566039,-16.0816885 69.2543475,-16.0685264 C69.3094187,-16.3938465 69.0976523,-16.4203756 69.4580925,-16.5937702 C69.5695193,-16.4479869 69.5361615,-16.2490876 69.7422041,-16.2641702 C70.0340021,-16.4933867 70.0664328,-16.87354 70.3015855,-17.0936544 C70.5273988,-17.3052956 70.8726235,-17.2473619 70.9336879,-17.4681849 C71.5258039,-19.4617064 73.0976089,-20.97881 73.7536337,-22.8764391 C72.9782143,-22.349047 72.7157969,-21.7520767 72.0931824,-21.363403" id="Fill-194-Copy" fill="#2CB0E6"></path>
        </g>
    </g>
</svg>